<mxfile host="app.diagrams.net" agent="Mozilla/5.0 (Windows NT 10.0; Win64; x64) AppleWebKit/537.36 (KHTML, like Gecko) Chrome/127.0.0.0 Safari/537.36" version="24.7.7" pages="3">
  <diagram id="Yglb6g-3kDoWajpmzeJu" name="요구사항 정리">
    <mxGraphModel dx="2261" dy="1949" grid="1" gridSize="10" guides="1" tooltips="1" connect="1" arrows="1" fold="1" page="1" pageScale="1" pageWidth="827" pageHeight="1169" math="0" shadow="0">
      <root>
        <mxCell id="0" />
        <mxCell id="1" parent="0" />
        <mxCell id="Q_QZP0DPcAVM4m-2vEKq-1" value="인증서비스" style="text;html=1;align=center;verticalAlign=middle;resizable=0;points=[];autosize=1;strokeColor=none;fillColor=none;" vertex="1" parent="1">
          <mxGeometry x="-675" y="-120" width="80" height="30" as="geometry" />
        </mxCell>
        <mxCell id="Q_QZP0DPcAVM4m-2vEKq-2" value="음원서비스" style="text;html=1;align=center;verticalAlign=middle;resizable=0;points=[];autosize=1;strokeColor=none;fillColor=none;" vertex="1" parent="1">
          <mxGeometry x="-515" y="-120" width="80" height="30" as="geometry" />
        </mxCell>
        <mxCell id="Q_QZP0DPcAVM4m-2vEKq-3" value="프로필 서비스" style="text;html=1;align=center;verticalAlign=middle;resizable=0;points=[];autosize=1;strokeColor=none;fillColor=none;" vertex="1" parent="1">
          <mxGeometry x="-390" y="-120" width="100" height="30" as="geometry" />
        </mxCell>
        <mxCell id="Q_QZP0DPcAVM4m-2vEKq-4" value="관리자 서비스" style="text;html=1;align=center;verticalAlign=middle;resizable=0;points=[];autosize=1;strokeColor=none;fillColor=none;" vertex="1" parent="1">
          <mxGeometry x="-250" y="-110" width="100" height="30" as="geometry" />
        </mxCell>
        <mxCell id="Q_QZP0DPcAVM4m-2vEKq-5" value="로그인&lt;div&gt;회원가입&lt;/div&gt;&lt;div&gt;회원탈퇴&lt;/div&gt;&lt;div&gt;사용자 정보 확인&lt;/div&gt;&lt;div&gt;사용자 정보 수정&lt;/div&gt;&lt;div&gt;&lt;br&gt;&lt;/div&gt;" style="text;html=1;align=center;verticalAlign=middle;resizable=0;points=[];autosize=1;strokeColor=none;fillColor=none;" vertex="1" parent="1">
          <mxGeometry x="-690" y="-80" width="110" height="100" as="geometry" />
        </mxCell>
        <mxCell id="Q_QZP0DPcAVM4m-2vEKq-6" value="&lt;div&gt;전체 조회&lt;/div&gt;&lt;div&gt;최신 조회&lt;/div&gt;&lt;div&gt;순위 조회&lt;/div&gt;&lt;div&gt;장르 조회&lt;/div&gt;&lt;div&gt;음원 업로드&lt;/div&gt;" style="text;html=1;align=center;verticalAlign=middle;resizable=0;points=[];autosize=1;strokeColor=none;fillColor=none;" vertex="1" parent="1">
          <mxGeometry x="-525" y="-80" width="90" height="90" as="geometry" />
        </mxCell>
        <mxCell id="Q_QZP0DPcAVM4m-2vEKq-7" value="&lt;div&gt;&lt;br&gt;&lt;/div&gt;&lt;div&gt;&lt;br&gt;&lt;/div&gt;&lt;div&gt;프로필 조회&lt;/div&gt;&lt;div&gt;플레이리스트&lt;br&gt;&lt;/div&gt;업로드 조회&lt;div&gt;최근 재생한 곡&lt;/div&gt;&lt;div&gt;&lt;br&gt;&lt;/div&gt;&lt;div&gt;&lt;br&gt;&lt;/div&gt;" style="text;html=1;align=center;verticalAlign=middle;resizable=0;points=[];autosize=1;strokeColor=none;fillColor=none;" vertex="1" parent="1">
          <mxGeometry x="-390" y="-110" width="100" height="130" as="geometry" />
        </mxCell>
        <mxCell id="Q_QZP0DPcAVM4m-2vEKq-8" value="결제 서비스" style="text;html=1;align=center;verticalAlign=middle;resizable=0;points=[];autosize=1;strokeColor=none;fillColor=none;" vertex="1" parent="1">
          <mxGeometry x="-680" y="40" width="90" height="30" as="geometry" />
        </mxCell>
        <mxCell id="Q_QZP0DPcAVM4m-2vEKq-9" value="결제" style="text;html=1;align=center;verticalAlign=middle;resizable=0;points=[];autosize=1;strokeColor=none;fillColor=none;" vertex="1" parent="1">
          <mxGeometry x="-660" y="70" width="50" height="30" as="geometry" />
        </mxCell>
        <mxCell id="Q_QZP0DPcAVM4m-2vEKq-10" value="회원 제재&lt;div&gt;회원 목록 조회&lt;/div&gt;&lt;div&gt;음원 삭제&lt;/div&gt;&lt;div&gt;&lt;br&gt;&lt;/div&gt;" style="text;html=1;align=center;verticalAlign=middle;resizable=0;points=[];autosize=1;strokeColor=none;fillColor=none;" vertex="1" parent="1">
          <mxGeometry x="-250" y="-80" width="100" height="70" as="geometry" />
        </mxCell>
        <mxCell id="Q_QZP0DPcAVM4m-2vEKq-11" value="게시판 서비스" style="text;html=1;align=center;verticalAlign=middle;resizable=0;points=[];autosize=1;strokeColor=none;fillColor=none;" vertex="1" parent="1">
          <mxGeometry x="-140" y="-110" width="100" height="30" as="geometry" />
        </mxCell>
        <mxCell id="Q_QZP0DPcAVM4m-2vEKq-12" value="공지사항&lt;div&gt;자주 묻는 질문&lt;/div&gt;&lt;div&gt;문의하기&lt;/div&gt;" style="text;html=1;align=center;verticalAlign=middle;resizable=0;points=[];autosize=1;strokeColor=none;fillColor=none;" vertex="1" parent="1">
          <mxGeometry x="-140" y="-90" width="100" height="60" as="geometry" />
        </mxCell>
        <mxCell id="_yiQOsT70Lzj3bJKAhTj-1" value="회원" style="swimlane;whiteSpace=wrap;html=1;" vertex="1" parent="1">
          <mxGeometry x="-780" y="110" width="445" height="610" as="geometry" />
        </mxCell>
        <mxCell id="_yiQOsT70Lzj3bJKAhTj-2" value="회원은 전체 음원을 조회하고, 재생하고, 정지하고, 다운로드 할 수 있다.&lt;div&gt;회원은 최신 음원을 조회하고, 재생하고, 정지하고, 다운로드 할 수 있다.&lt;/div&gt;&lt;div&gt;회원은 장르별 음원을 조회하고, 재생하고, 정지하고, 다운로드 할 수 있다..&lt;br&gt;&lt;/div&gt;&lt;div&gt;회원은 순위별 음원을 조회하고, 재생하고, 정지하고, 다운로드 할 수 있다.&lt;br&gt;&lt;/div&gt;&lt;div&gt;회원은 음원을 업로드 할 수 있다.&lt;br&gt;&lt;/div&gt;" style="text;html=1;align=left;verticalAlign=middle;resizable=0;points=[];autosize=1;strokeColor=none;fillColor=none;fontSize=12;" vertex="1" parent="_yiQOsT70Lzj3bJKAhTj-1">
          <mxGeometry x="25" y="75" width="420" height="90" as="geometry" />
        </mxCell>
        <mxCell id="_yiQOsT70Lzj3bJKAhTj-3" value="[음원 서비스]" style="text;html=1;align=left;verticalAlign=middle;resizable=0;points=[];autosize=1;strokeColor=none;fillColor=none;fontSize=16;" vertex="1" parent="_yiQOsT70Lzj3bJKAhTj-1">
          <mxGeometry x="25" y="40" width="120" height="30" as="geometry" />
        </mxCell>
        <mxCell id="_yiQOsT70Lzj3bJKAhTj-4" value="[인증 서비스]" style="text;html=1;align=left;verticalAlign=middle;resizable=0;points=[];autosize=1;strokeColor=none;fillColor=none;fontSize=16;" vertex="1" parent="_yiQOsT70Lzj3bJKAhTj-1">
          <mxGeometry x="25" y="190" width="120" height="30" as="geometry" />
        </mxCell>
        <mxCell id="_yiQOsT70Lzj3bJKAhTj-5" value="회원은 로그인 할 수 있다.&lt;div style=&quot;font-size: 12px;&quot;&gt;&lt;span style=&quot;background-color: initial; font-size: 12px;&quot;&gt;회원은 내 정보를 조회 할 수 있다.&lt;/span&gt;&lt;/div&gt;&lt;div style=&quot;font-size: 12px;&quot;&gt;회원은 내 정보를 수정 할 수 있다.&lt;/div&gt;&lt;div style=&quot;font-size: 12px;&quot;&gt;&lt;div style=&quot;font-size: 12px;&quot;&gt;회원은 탈퇴 할 수 있다.&lt;/div&gt;&lt;/div&gt;" style="text;html=1;align=left;verticalAlign=middle;resizable=0;points=[];autosize=1;strokeColor=none;fillColor=none;fontSize=12;" vertex="1" parent="_yiQOsT70Lzj3bJKAhTj-1">
          <mxGeometry x="25" y="220" width="200" height="70" as="geometry" />
        </mxCell>
        <mxCell id="_yiQOsT70Lzj3bJKAhTj-6" value="회원은 프로필을 조회 할 수 있다.&lt;div&gt;회원은 프로필을 수정 할 수 있다.&lt;br&gt;&lt;div&gt;회원은 플레이리스트를 조회하고, 수정 할 수 있다.&lt;/div&gt;&lt;div&gt;회원은 업로드 음원을 조회하고, 삭제 할 수 있다.&lt;/div&gt;&lt;div&gt;회원은 최근 재생한 곡을 조회할 수 있다.&lt;/div&gt;&lt;/div&gt;" style="text;html=1;align=left;verticalAlign=middle;resizable=0;points=[];autosize=1;strokeColor=none;fillColor=none;fontSize=12;" vertex="1" parent="_yiQOsT70Lzj3bJKAhTj-1">
          <mxGeometry x="25" y="355" width="290" height="90" as="geometry" />
        </mxCell>
        <mxCell id="_yiQOsT70Lzj3bJKAhTj-7" value="[프로필 서비스]" style="text;html=1;align=left;verticalAlign=middle;resizable=0;points=[];autosize=1;strokeColor=none;fillColor=none;fontSize=16;" vertex="1" parent="_yiQOsT70Lzj3bJKAhTj-1">
          <mxGeometry x="25" y="320" width="130" height="30" as="geometry" />
        </mxCell>
        <mxCell id="L7nA-vEvKbSc-hqzkisi-1" value="[결제 서비스]" style="text;html=1;align=left;verticalAlign=middle;resizable=0;points=[];autosize=1;strokeColor=none;fillColor=none;fontSize=16;" vertex="1" parent="_yiQOsT70Lzj3bJKAhTj-1">
          <mxGeometry x="25" y="450" width="120" height="30" as="geometry" />
        </mxCell>
        <mxCell id="L7nA-vEvKbSc-hqzkisi-2" value="회원은 음원 다운로드를 위해 결제 할 수 있다." style="text;html=1;align=center;verticalAlign=middle;resizable=0;points=[];autosize=1;strokeColor=none;fillColor=none;" vertex="1" parent="_yiQOsT70Lzj3bJKAhTj-1">
          <mxGeometry x="10" y="488" width="270" height="30" as="geometry" />
        </mxCell>
        <mxCell id="bote0D4lV-yIdIGDYsx--3" value="[게시판 서비스]" style="text;html=1;align=left;verticalAlign=middle;resizable=0;points=[];autosize=1;strokeColor=none;fillColor=none;fontSize=16;" vertex="1" parent="_yiQOsT70Lzj3bJKAhTj-1">
          <mxGeometry x="25" y="518" width="130" height="30" as="geometry" />
        </mxCell>
        <mxCell id="bote0D4lV-yIdIGDYsx--4" value="회원은 공지사항을 조회 할 수 있다.&lt;div&gt;회원은 자주 묻는 질문을 조회 할 수 있다.&lt;/div&gt;" style="text;html=1;align=left;verticalAlign=middle;resizable=0;points=[];autosize=1;strokeColor=none;fillColor=none;" vertex="1" parent="_yiQOsT70Lzj3bJKAhTj-1">
          <mxGeometry x="25" y="550" width="240" height="40" as="geometry" />
        </mxCell>
        <mxCell id="00LQljklzhXvNkFTWATm-1" value="비회원" style="swimlane;whiteSpace=wrap;html=1;" vertex="1" parent="1">
          <mxGeometry x="-290" y="130" width="440" height="500" as="geometry" />
        </mxCell>
        <mxCell id="FY9WN9EHXc_6c1_s4wQp-1" value="[인증 서비스]" style="text;html=1;align=left;verticalAlign=middle;resizable=0;points=[];autosize=1;strokeColor=none;fillColor=none;fontSize=16;" vertex="1" parent="00LQljklzhXvNkFTWATm-1">
          <mxGeometry x="20" y="45" width="120" height="30" as="geometry" />
        </mxCell>
        <mxCell id="FY9WN9EHXc_6c1_s4wQp-2" value="비회원은 회원가입 할 수 있다." style="text;html=1;align=center;verticalAlign=middle;resizable=0;points=[];autosize=1;strokeColor=none;fillColor=none;" vertex="1" parent="00LQljklzhXvNkFTWATm-1">
          <mxGeometry x="10" y="75" width="180" height="30" as="geometry" />
        </mxCell>
        <mxCell id="FY9WN9EHXc_6c1_s4wQp-3" value="[음원 서비스]" style="text;html=1;align=left;verticalAlign=middle;resizable=0;points=[];autosize=1;strokeColor=none;fillColor=none;fontSize=16;" vertex="1" parent="00LQljklzhXvNkFTWATm-1">
          <mxGeometry x="20" y="120" width="120" height="30" as="geometry" />
        </mxCell>
        <mxCell id="FY9WN9EHXc_6c1_s4wQp-4" value="&lt;div&gt;&lt;span style=&quot;background-color: initial;&quot;&gt;비회원은 전체 음원을 조회하고, 재생하고, 정지하고, 다운로드 할 수 있다.&lt;/span&gt;&lt;br&gt;&lt;/div&gt;&lt;div style=&quot;&quot;&gt;비회원은 최신 음원을 조회하고, 재생하고, 정지하고, 다운로드 할 수 있다.&lt;/div&gt;&lt;div style=&quot;&quot;&gt;비회원은 장르별 음원을 조회하고, 재생하고, 정지하고, 다운로드 할 수 있다.&lt;br&gt;&lt;/div&gt;&lt;div style=&quot;&quot;&gt;비회원은 순위별 음원을 조회하고, 재생하고, 정지하고, 다운로드 할 수 있다.&lt;/div&gt;" style="text;html=1;align=left;verticalAlign=middle;resizable=0;points=[];autosize=1;strokeColor=none;fillColor=none;" vertex="1" parent="00LQljklzhXvNkFTWATm-1">
          <mxGeometry x="20" y="160" width="430" height="70" as="geometry" />
        </mxCell>
        <mxCell id="bote0D4lV-yIdIGDYsx--1" value="[게시판 서비스]" style="text;html=1;align=left;verticalAlign=middle;resizable=0;points=[];autosize=1;strokeColor=none;fillColor=none;fontSize=16;" vertex="1" parent="00LQljklzhXvNkFTWATm-1">
          <mxGeometry x="25" y="240" width="130" height="30" as="geometry" />
        </mxCell>
        <mxCell id="bote0D4lV-yIdIGDYsx--2" value="비회원은 공지사항을 조회 할 수 있다.&lt;div&gt;비회원은 자주 묻는 질문을 조회 할 수 있다.&lt;/div&gt;" style="text;html=1;align=left;verticalAlign=middle;resizable=0;points=[];autosize=1;strokeColor=none;fillColor=none;" vertex="1" parent="00LQljklzhXvNkFTWATm-1">
          <mxGeometry x="20" y="280" width="250" height="40" as="geometry" />
        </mxCell>
        <mxCell id="O8Cty-QSXirLbz3F35Yn-1" value="관리자" style="swimlane;whiteSpace=wrap;html=1;" vertex="1" parent="1">
          <mxGeometry x="-770" y="750" width="340" height="360" as="geometry" />
        </mxCell>
        <mxCell id="O8Cty-QSXirLbz3F35Yn-2" value="[관리자서비스]" style="text;html=1;align=center;verticalAlign=middle;resizable=0;points=[];autosize=1;strokeColor=none;fillColor=none;" vertex="1" parent="O8Cty-QSXirLbz3F35Yn-1">
          <mxGeometry y="40" width="100" height="30" as="geometry" />
        </mxCell>
        <mxCell id="O8Cty-QSXirLbz3F35Yn-4" value="관리자는 회원을 제재 할 수 있다.&lt;div&gt;관리자는 회원 목록을 조회 할 수 있다.&lt;div&gt;관리자는 업로드된 음악을 삭제 할 수 있다.&lt;/div&gt;&lt;/div&gt;" style="text;html=1;align=left;verticalAlign=middle;resizable=0;points=[];autosize=1;strokeColor=none;fillColor=none;" vertex="1" parent="O8Cty-QSXirLbz3F35Yn-1">
          <mxGeometry x="10" y="70" width="250" height="60" as="geometry" />
        </mxCell>
        <mxCell id="rhOy_xIAUFmk2wMdRPvu-1" value="&lt;div&gt;&lt;div style=&quot;text-align: left;&quot;&gt;관리자는 공지사항을 작성 할 수 있다.&lt;/div&gt;&lt;div style=&quot;text-align: left;&quot;&gt;관리자는 자주 묻는 질문을 작성 할 수 있다.&lt;/div&gt;&lt;/div&gt;&lt;div style=&quot;text-align: left;&quot;&gt;관리자는 문의하기를 조회 할 수 있다.&lt;/div&gt;" style="text;html=1;align=center;verticalAlign=middle;resizable=0;points=[];autosize=1;strokeColor=none;fillColor=none;" vertex="1" parent="O8Cty-QSXirLbz3F35Yn-1">
          <mxGeometry y="190" width="250" height="60" as="geometry" />
        </mxCell>
        <mxCell id="KHFy3r-vLXWlM0eGWLGp-1" value="[게시판서비스]" style="text;html=1;align=center;verticalAlign=middle;resizable=0;points=[];autosize=1;strokeColor=none;fillColor=none;" vertex="1" parent="O8Cty-QSXirLbz3F35Yn-1">
          <mxGeometry y="160" width="100" height="30" as="geometry" />
        </mxCell>
        <mxCell id="KHFy3r-vLXWlM0eGWLGp-2" value="[인증서비스]" style="text;html=1;align=center;verticalAlign=middle;resizable=0;points=[];autosize=1;strokeColor=none;fillColor=none;" vertex="1" parent="O8Cty-QSXirLbz3F35Yn-1">
          <mxGeometry y="270" width="90" height="30" as="geometry" />
        </mxCell>
        <mxCell id="KHFy3r-vLXWlM0eGWLGp-3" value="관리자는 로그인 할 수 있다." style="text;html=1;align=center;verticalAlign=middle;resizable=0;points=[];autosize=1;strokeColor=none;fillColor=none;" vertex="1" parent="O8Cty-QSXirLbz3F35Yn-1">
          <mxGeometry y="300" width="170" height="30" as="geometry" />
        </mxCell>
      </root>
    </mxGraphModel>
  </diagram>
  <diagram id="2EKz-1kUPB40i43Zh45v" name="유스케이스 다이어그램">
    <mxGraphModel dx="3247" dy="867" grid="1" gridSize="10" guides="1" tooltips="1" connect="1" arrows="1" fold="1" page="1" pageScale="1" pageWidth="827" pageHeight="1169" math="0" shadow="0">
      <root>
        <mxCell id="0" />
        <mxCell id="1" parent="0" />
        <mxCell id="6-hAktMeFIukmWkQpg2o-1" value="비회원" style="swimlane;whiteSpace=wrap;html=1;" parent="1" vertex="1">
          <mxGeometry x="477" y="30" width="350" height="500" as="geometry" />
        </mxCell>
        <mxCell id="6-hAktMeFIukmWkQpg2o-2" value="전체 음원을 검색할수있다&amp;nbsp;" style="text;html=1;align=center;verticalAlign=middle;resizable=0;points=[];autosize=1;strokeColor=none;fillColor=none;" parent="6-hAktMeFIukmWkQpg2o-1" vertex="1">
          <mxGeometry x="10" y="50" width="170" height="30" as="geometry" />
        </mxCell>
        <mxCell id="6-hAktMeFIukmWkQpg2o-3" value="키워드로 원하는 음원을 검색할수있다" style="text;html=1;align=center;verticalAlign=middle;resizable=0;points=[];autosize=1;strokeColor=none;fillColor=none;" parent="6-hAktMeFIukmWkQpg2o-1" vertex="1">
          <mxGeometry x="10" y="90" width="230" height="30" as="geometry" />
        </mxCell>
        <mxCell id="6-hAktMeFIukmWkQpg2o-4" value="음원 순위별로 조회 할수있다" style="text;html=1;align=center;verticalAlign=middle;resizable=0;points=[];autosize=1;strokeColor=none;fillColor=none;" parent="6-hAktMeFIukmWkQpg2o-1" vertex="1">
          <mxGeometry x="10" y="70" width="180" height="30" as="geometry" />
        </mxCell>
        <mxCell id="6-hAktMeFIukmWkQpg2o-5" value="음원 장르별로 조회 할수있다" style="text;html=1;align=center;verticalAlign=middle;resizable=0;points=[];autosize=1;strokeColor=none;fillColor=none;" parent="6-hAktMeFIukmWkQpg2o-1" vertex="1">
          <mxGeometry x="10" y="110" width="180" height="30" as="geometry" />
        </mxCell>
        <mxCell id="6-hAktMeFIukmWkQpg2o-6" value="일부분 음원 듣기가 가능하다" style="text;html=1;align=center;verticalAlign=middle;resizable=0;points=[];autosize=1;strokeColor=none;fillColor=none;" parent="6-hAktMeFIukmWkQpg2o-1" vertex="1">
          <mxGeometry x="10" y="130" width="180" height="30" as="geometry" />
        </mxCell>
        <mxCell id="6-hAktMeFIukmWkQpg2o-7" value="비회원이 원할경우 회원가입을 할수있다" style="text;html=1;align=center;verticalAlign=middle;resizable=0;points=[];autosize=1;strokeColor=none;fillColor=none;" parent="6-hAktMeFIukmWkQpg2o-1" vertex="1">
          <mxGeometry y="210" width="240" height="30" as="geometry" />
        </mxCell>
        <mxCell id="6-hAktMeFIukmWkQpg2o-8" value="[인증서비스]" style="text;html=1;align=center;verticalAlign=middle;resizable=0;points=[];autosize=1;strokeColor=none;fillColor=none;" parent="6-hAktMeFIukmWkQpg2o-1" vertex="1">
          <mxGeometry x="10" y="180" width="90" height="30" as="geometry" />
        </mxCell>
        <mxCell id="6-hAktMeFIukmWkQpg2o-9" value="관리자" style="swimlane;whiteSpace=wrap;html=1;" parent="1" vertex="1">
          <mxGeometry x="25" y="585" width="350" height="500" as="geometry" />
        </mxCell>
        <mxCell id="6-hAktMeFIukmWkQpg2o-10" value="[관리자서비스]" style="text;html=1;align=center;verticalAlign=middle;resizable=0;points=[];autosize=1;strokeColor=none;fillColor=none;" parent="6-hAktMeFIukmWkQpg2o-9" vertex="1">
          <mxGeometry y="30" width="100" height="30" as="geometry" />
        </mxCell>
        <mxCell id="6-hAktMeFIukmWkQpg2o-11" value="회원가입시 사용자 입력을 받아저장한다" style="text;html=1;align=center;verticalAlign=middle;resizable=0;points=[];autosize=1;strokeColor=none;fillColor=none;" parent="6-hAktMeFIukmWkQpg2o-9" vertex="1">
          <mxGeometry y="60" width="240" height="30" as="geometry" />
        </mxCell>
        <mxCell id="6-hAktMeFIukmWkQpg2o-14" value="회원의 신고 요청을 받을수있다" style="text;html=1;align=center;verticalAlign=middle;resizable=0;points=[];autosize=1;strokeColor=none;fillColor=none;" parent="6-hAktMeFIukmWkQpg2o-9" vertex="1">
          <mxGeometry y="90" width="190" height="30" as="geometry" />
        </mxCell>
        <mxCell id="6-hAktMeFIukmWkQpg2o-15" value="회원이 올린 음원을 삭제할수있다" style="text;html=1;align=center;verticalAlign=middle;resizable=0;points=[];autosize=1;strokeColor=none;fillColor=none;" parent="6-hAktMeFIukmWkQpg2o-9" vertex="1">
          <mxGeometry y="120" width="200" height="30" as="geometry" />
        </mxCell>
        <mxCell id="6-hAktMeFIukmWkQpg2o-16" value="회원의 목록을 조회할수있다" style="text;html=1;align=center;verticalAlign=middle;resizable=0;points=[];autosize=1;strokeColor=none;fillColor=none;" parent="6-hAktMeFIukmWkQpg2o-9" vertex="1">
          <mxGeometry x="1" y="151" width="170" height="30" as="geometry" />
        </mxCell>
        <mxCell id="6-hAktMeFIukmWkQpg2o-18" value="회원의 수정된 정보를 업로드 할수있다" style="text;html=1;align=center;verticalAlign=middle;resizable=0;points=[];autosize=1;strokeColor=none;fillColor=none;" parent="6-hAktMeFIukmWkQpg2o-9" vertex="1">
          <mxGeometry y="181" width="230" height="30" as="geometry" />
        </mxCell>
        <mxCell id="0lIhJ_gDn7Eu97xSG3Bf-1" value="회원" style="swimlane;whiteSpace=wrap;html=1;" vertex="1" parent="1">
          <mxGeometry x="25" y="30" width="345" height="500" as="geometry" />
        </mxCell>
        <mxCell id="0lIhJ_gDn7Eu97xSG3Bf-9" value="&lt;font style=&quot;font-size: 12px;&quot;&gt;회원은 전체 음원을 들을 수 있다.&lt;/font&gt;&lt;div&gt;&lt;div style=&quot;font-size: 12px;&quot;&gt;&lt;div style=&quot;font-size: 12px;&quot;&gt;&lt;font style=&quot;font-size: 12px;&quot;&gt;회원은 업로드한 음원을 삭제할 수 있다.&lt;/font&gt;&lt;/div&gt;&lt;div style=&quot;font-size: 12px;&quot;&gt;&lt;font style=&quot;font-size: 12px;&quot;&gt;회원은 음원을 업로드 할 수 있다.&lt;/font&gt;&lt;/div&gt;&lt;div style=&quot;font-size: 12px;&quot;&gt;&lt;font style=&quot;font-size: 12px;&quot;&gt;회원은 음원을 순위별, 장르별, 키워드별 검색 할 수 있다.&lt;/font&gt;&lt;/div&gt;&lt;div style=&quot;font-size: 12px;&quot;&gt;&lt;font style=&quot;font-size: 12px;&quot;&gt;회원은 결제를 하면 음원을 다운로드 받을 수 있다&lt;/font&gt;&lt;/div&gt;&lt;div style=&quot;font-size: 12px;&quot;&gt;&lt;font style=&quot;font-size: 12px;&quot;&gt;회원은 음원을 자신의 플레이리스트에 등록할 수 있다.&lt;/font&gt;&lt;/div&gt;&lt;/div&gt;&lt;/div&gt;" style="text;html=1;align=left;verticalAlign=middle;resizable=0;points=[];autosize=1;strokeColor=none;fillColor=none;fontSize=12;" vertex="1" parent="0lIhJ_gDn7Eu97xSG3Bf-1">
          <mxGeometry x="25" y="70" width="320" height="100" as="geometry" />
        </mxCell>
        <mxCell id="0lIhJ_gDn7Eu97xSG3Bf-10" value="[음원 서비스]" style="text;html=1;align=left;verticalAlign=middle;resizable=0;points=[];autosize=1;strokeColor=none;fillColor=none;fontSize=16;" vertex="1" parent="0lIhJ_gDn7Eu97xSG3Bf-1">
          <mxGeometry x="25" y="40" width="120" height="30" as="geometry" />
        </mxCell>
        <mxCell id="0lIhJ_gDn7Eu97xSG3Bf-11" value="[인증 서비스]" style="text;html=1;align=left;verticalAlign=middle;resizable=0;points=[];autosize=1;strokeColor=none;fillColor=none;fontSize=16;" vertex="1" parent="0lIhJ_gDn7Eu97xSG3Bf-1">
          <mxGeometry x="25" y="190" width="120" height="30" as="geometry" />
        </mxCell>
        <mxCell id="0lIhJ_gDn7Eu97xSG3Bf-12" value="회원은 내 정보를 수정할 수 있다.&lt;div style=&quot;font-size: 12px;&quot;&gt;회원은 내 정보를 확인 할 수 있다.&lt;/div&gt;&lt;div style=&quot;font-size: 12px;&quot;&gt;&lt;span style=&quot;background-color: initial; font-size: 12px;&quot;&gt;회원은 내 정보를 비공개로 할 수 있다.&lt;/span&gt;&lt;/div&gt;&lt;div style=&quot;font-size: 12px;&quot;&gt;&lt;div style=&quot;font-size: 12px;&quot;&gt;회원은 탈퇴 할 수 있다.&lt;/div&gt;&lt;/div&gt;" style="text;html=1;align=left;verticalAlign=middle;resizable=0;points=[];autosize=1;strokeColor=none;fillColor=none;fontSize=12;" vertex="1" parent="0lIhJ_gDn7Eu97xSG3Bf-1">
          <mxGeometry x="25" y="220" width="230" height="70" as="geometry" />
        </mxCell>
        <mxCell id="0lIhJ_gDn7Eu97xSG3Bf-13" value="&lt;br style=&quot;font-size: 12px;&quot;&gt;&lt;div style=&quot;font-size: 12px;&quot;&gt;회원은 내 플레이리스트를 확인 할 수 있다.&lt;/div&gt;&lt;div style=&quot;font-size: 12px;&quot;&gt;회원은 내 플레이리스트를 수정할 수 있다.&lt;/div&gt;&lt;div style=&quot;font-size: 12px;&quot;&gt;&lt;span style=&quot;background-color: initial; font-size: 12px;&quot;&gt;회원은 선호 카테고리를 확인 할 수 있다.&lt;/span&gt;&lt;/div&gt;&lt;div style=&quot;font-size: 12px;&quot;&gt;&lt;div style=&quot;font-size: 12px;&quot;&gt;&lt;span style=&quot;background-color: initial; font-size: 12px;&quot;&gt;회원은 내 프로필을 확인 할 수 있다.&lt;/span&gt;&lt;br style=&quot;font-size: 12px;&quot;&gt;&lt;/div&gt;&lt;div style=&quot;font-size: 12px;&quot;&gt;&lt;span style=&quot;background-color: initial; font-size: 12px;&quot;&gt;회원은 내 프로필을 수정할 수 있다.&lt;/span&gt;&lt;/div&gt;&lt;/div&gt;" style="text;html=1;align=left;verticalAlign=middle;resizable=0;points=[];autosize=1;strokeColor=none;fillColor=none;fontSize=12;" vertex="1" parent="0lIhJ_gDn7Eu97xSG3Bf-1">
          <mxGeometry x="25" y="350" width="250" height="100" as="geometry" />
        </mxCell>
        <mxCell id="0lIhJ_gDn7Eu97xSG3Bf-14" value="[프로필 서비스]" style="text;html=1;align=left;verticalAlign=middle;resizable=0;points=[];autosize=1;strokeColor=none;fillColor=none;fontSize=16;" vertex="1" parent="0lIhJ_gDn7Eu97xSG3Bf-1">
          <mxGeometry x="25" y="320" width="130" height="30" as="geometry" />
        </mxCell>
        <mxCell id="CRBcAmu8d5yitR3T7LE3-20" value="관리자" style="shape=umlActor;verticalLabelPosition=bottom;verticalAlign=top;html=1;" vertex="1" parent="1">
          <mxGeometry x="-180" y="538.5" width="30" height="60" as="geometry" />
        </mxCell>
        <mxCell id="CRBcAmu8d5yitR3T7LE3-23" value="비회원" style="shape=umlActor;verticalLabelPosition=bottom;verticalAlign=top;html=1;" vertex="1" parent="1">
          <mxGeometry x="-1400" y="910" width="30" height="60" as="geometry" />
        </mxCell>
        <mxCell id="CRBcAmu8d5yitR3T7LE3-24" value="회원" style="shape=umlActor;verticalLabelPosition=bottom;verticalAlign=top;html=1;" vertex="1" parent="1">
          <mxGeometry x="-1440" y="470" width="30" height="60" as="geometry" />
        </mxCell>
        <mxCell id="CRBcAmu8d5yitR3T7LE3-29" value="회원가입" style="ellipse;whiteSpace=wrap;html=1;" vertex="1" parent="1">
          <mxGeometry x="-1140" y="925" width="50" height="50" as="geometry" />
        </mxCell>
        <mxCell id="CRBcAmu8d5yitR3T7LE3-30" value="Use" style="endArrow=classicThin;endSize=12;html=1;rounded=0;endFill=1;" edge="1" parent="1" source="CRBcAmu8d5yitR3T7LE3-23" target="CRBcAmu8d5yitR3T7LE3-29">
          <mxGeometry x="-0.1429" width="160" relative="1" as="geometry">
            <mxPoint x="-1170" y="800" as="sourcePoint" />
            <mxPoint x="-1125" y="844" as="targetPoint" />
            <mxPoint as="offset" />
          </mxGeometry>
        </mxCell>
        <mxCell id="CRBcAmu8d5yitR3T7LE3-31" value="로그인" style="ellipse;whiteSpace=wrap;html=1;" vertex="1" parent="1">
          <mxGeometry x="-900" y="623.5" width="100" height="75" as="geometry" />
        </mxCell>
        <mxCell id="CRBcAmu8d5yitR3T7LE3-78" value="" style="edgeStyle=orthogonalEdgeStyle;rounded=0;orthogonalLoop=1;jettySize=auto;html=1;endArrow=block;endFill=0;" edge="1" parent="1" source="CRBcAmu8d5yitR3T7LE3-35" target="CRBcAmu8d5yitR3T7LE3-77">
          <mxGeometry relative="1" as="geometry" />
        </mxCell>
        <mxCell id="CRBcAmu8d5yitR3T7LE3-35" value="개인정보 조회" style="ellipse;whiteSpace=wrap;html=1;" vertex="1" parent="1">
          <mxGeometry x="-1092.5" y="770" width="50" height="50" as="geometry" />
        </mxCell>
        <mxCell id="CRBcAmu8d5yitR3T7LE3-80" value="" style="edgeStyle=orthogonalEdgeStyle;rounded=0;orthogonalLoop=1;jettySize=auto;html=1;endArrow=block;endFill=0;" edge="1" parent="1" source="CRBcAmu8d5yitR3T7LE3-36" target="CRBcAmu8d5yitR3T7LE3-77">
          <mxGeometry relative="1" as="geometry" />
        </mxCell>
        <mxCell id="CRBcAmu8d5yitR3T7LE3-36" value="회원탈퇴" style="ellipse;whiteSpace=wrap;html=1;" vertex="1" parent="1">
          <mxGeometry x="-1150" y="770" width="50" height="50" as="geometry" />
        </mxCell>
        <mxCell id="CRBcAmu8d5yitR3T7LE3-79" value="" style="edgeStyle=orthogonalEdgeStyle;rounded=0;orthogonalLoop=1;jettySize=auto;html=1;endArrow=block;endFill=0;" edge="1" parent="1" source="CRBcAmu8d5yitR3T7LE3-47" target="CRBcAmu8d5yitR3T7LE3-77">
          <mxGeometry relative="1" as="geometry" />
        </mxCell>
        <mxCell id="CRBcAmu8d5yitR3T7LE3-47" value="개인정보 수정" style="ellipse;whiteSpace=wrap;html=1;" vertex="1" parent="1">
          <mxGeometry x="-1035" y="770" width="50" height="50" as="geometry" />
        </mxCell>
        <mxCell id="CRBcAmu8d5yitR3T7LE3-48" value="음원 서비스" style="ellipse;whiteSpace=wrap;html=1;" vertex="1" parent="1">
          <mxGeometry x="-1050" y="455" width="100" height="75" as="geometry" />
        </mxCell>
        <mxCell id="CRBcAmu8d5yitR3T7LE3-56" style="edgeStyle=orthogonalEdgeStyle;rounded=0;orthogonalLoop=1;jettySize=auto;html=1;endArrow=block;endFill=0;" edge="1" parent="1" source="CRBcAmu8d5yitR3T7LE3-49" target="CRBcAmu8d5yitR3T7LE3-48">
          <mxGeometry relative="1" as="geometry">
            <Array as="points">
              <mxPoint x="-1120" y="400" />
              <mxPoint x="-1000" y="400" />
            </Array>
          </mxGeometry>
        </mxCell>
        <mxCell id="CRBcAmu8d5yitR3T7LE3-49" value="전체 음원 조회" style="ellipse;whiteSpace=wrap;html=1;" vertex="1" parent="1">
          <mxGeometry x="-1150" y="320" width="60" height="50" as="geometry" />
        </mxCell>
        <mxCell id="CRBcAmu8d5yitR3T7LE3-54" style="edgeStyle=orthogonalEdgeStyle;rounded=0;orthogonalLoop=1;jettySize=auto;html=1;endArrow=block;endFill=0;" edge="1" parent="1" source="CRBcAmu8d5yitR3T7LE3-50" target="CRBcAmu8d5yitR3T7LE3-48">
          <mxGeometry relative="1" as="geometry">
            <Array as="points">
              <mxPoint x="-900" y="400" />
              <mxPoint x="-1000" y="400" />
            </Array>
          </mxGeometry>
        </mxCell>
        <mxCell id="CRBcAmu8d5yitR3T7LE3-50" value="순위별 음원 조회" style="ellipse;whiteSpace=wrap;html=1;" vertex="1" parent="1">
          <mxGeometry x="-935" y="320" width="70" height="50" as="geometry" />
        </mxCell>
        <mxCell id="CRBcAmu8d5yitR3T7LE3-53" value="" style="edgeStyle=orthogonalEdgeStyle;rounded=0;orthogonalLoop=1;jettySize=auto;html=1;endArrow=block;endFill=0;" edge="1" parent="1" source="CRBcAmu8d5yitR3T7LE3-51" target="CRBcAmu8d5yitR3T7LE3-48">
          <mxGeometry relative="1" as="geometry">
            <Array as="points">
              <mxPoint x="-970" y="400" />
              <mxPoint x="-1000" y="400" />
            </Array>
          </mxGeometry>
        </mxCell>
        <mxCell id="CRBcAmu8d5yitR3T7LE3-51" value="최신 음원 조회" style="ellipse;whiteSpace=wrap;html=1;" vertex="1" parent="1">
          <mxGeometry x="-1000" y="320" width="60" height="50" as="geometry" />
        </mxCell>
        <mxCell id="CRBcAmu8d5yitR3T7LE3-55" style="edgeStyle=orthogonalEdgeStyle;rounded=0;orthogonalLoop=1;jettySize=auto;html=1;endArrow=block;endFill=0;" edge="1" parent="1" source="CRBcAmu8d5yitR3T7LE3-52" target="CRBcAmu8d5yitR3T7LE3-48">
          <mxGeometry relative="1" as="geometry">
            <Array as="points">
              <mxPoint x="-1047" y="400" />
              <mxPoint x="-1000" y="400" />
            </Array>
          </mxGeometry>
        </mxCell>
        <mxCell id="CRBcAmu8d5yitR3T7LE3-52" value="장르별 음원 조화" style="ellipse;whiteSpace=wrap;html=1;" vertex="1" parent="1">
          <mxGeometry x="-1080" y="320" width="67" height="50" as="geometry" />
        </mxCell>
        <mxCell id="CRBcAmu8d5yitR3T7LE3-57" value="Use" style="endArrow=classicThin;endSize=12;html=1;rounded=0;endFill=1;entryX=0;entryY=0.5;entryDx=0;entryDy=0;" edge="1" parent="1" source="CRBcAmu8d5yitR3T7LE3-24" target="CRBcAmu8d5yitR3T7LE3-48">
          <mxGeometry x="-0.1429" width="160" relative="1" as="geometry">
            <mxPoint x="-1340" y="496" as="sourcePoint" />
            <mxPoint x="-873" y="699" as="targetPoint" />
            <mxPoint as="offset" />
          </mxGeometry>
        </mxCell>
        <mxCell id="CRBcAmu8d5yitR3T7LE3-58" value="발라드" style="ellipse;whiteSpace=wrap;html=1;" vertex="1" parent="1">
          <mxGeometry x="-1171.5" y="210" width="50" height="50" as="geometry" />
        </mxCell>
        <mxCell id="CRBcAmu8d5yitR3T7LE3-59" value="락" style="ellipse;whiteSpace=wrap;html=1;" vertex="1" parent="1">
          <mxGeometry x="-1121.5" y="210" width="50" height="50" as="geometry" />
        </mxCell>
        <mxCell id="CRBcAmu8d5yitR3T7LE3-60" value="트로트" style="ellipse;whiteSpace=wrap;html=1;" vertex="1" parent="1">
          <mxGeometry x="-1071.5" y="210" width="50" height="50" as="geometry" />
        </mxCell>
        <mxCell id="CRBcAmu8d5yitR3T7LE3-61" value="주간&lt;div&gt;&lt;span style=&quot;background-color: initial;&quot;&gt;순위&lt;/span&gt;&lt;/div&gt;" style="ellipse;whiteSpace=wrap;html=1;" vertex="1" parent="1">
          <mxGeometry x="-885" y="210" width="50" height="50" as="geometry" />
        </mxCell>
        <mxCell id="CRBcAmu8d5yitR3T7LE3-62" value="월간&lt;div&gt;순위&lt;/div&gt;" style="ellipse;whiteSpace=wrap;html=1;" vertex="1" parent="1">
          <mxGeometry x="-835" y="210" width="50" height="50" as="geometry" />
        </mxCell>
        <mxCell id="CRBcAmu8d5yitR3T7LE3-63" value="실시간 순위" style="ellipse;whiteSpace=wrap;html=1;" vertex="1" parent="1">
          <mxGeometry x="-935" y="210" width="50" height="50" as="geometry" />
        </mxCell>
        <mxCell id="CRBcAmu8d5yitR3T7LE3-64" value="Extends" style="endArrow=open;endSize=12;dashed=1;html=1;rounded=0;exitX=0.5;exitY=1;exitDx=0;exitDy=0;entryX=0.378;entryY=0.026;entryDx=0;entryDy=0;entryPerimeter=0;" edge="1" parent="1" source="CRBcAmu8d5yitR3T7LE3-63" target="CRBcAmu8d5yitR3T7LE3-50">
          <mxGeometry x="-0.1429" width="160" relative="1" as="geometry">
            <mxPoint x="-805" y="480" as="sourcePoint" />
            <mxPoint x="-910" y="319" as="targetPoint" />
            <mxPoint as="offset" />
          </mxGeometry>
        </mxCell>
        <mxCell id="CRBcAmu8d5yitR3T7LE3-65" value="Extends" style="endArrow=open;endSize=12;dashed=1;html=1;rounded=0;exitX=0.5;exitY=1;exitDx=0;exitDy=0;entryX=0.654;entryY=0.026;entryDx=0;entryDy=0;entryPerimeter=0;" edge="1" parent="1" source="CRBcAmu8d5yitR3T7LE3-61" target="CRBcAmu8d5yitR3T7LE3-50">
          <mxGeometry x="-0.4515" y="-2" width="160" relative="1" as="geometry">
            <mxPoint x="-900" y="220" as="sourcePoint" />
            <mxPoint x="-880" y="300" as="targetPoint" />
            <mxPoint as="offset" />
          </mxGeometry>
        </mxCell>
        <mxCell id="CRBcAmu8d5yitR3T7LE3-66" value="Extends" style="endArrow=open;endSize=12;dashed=1;html=1;rounded=0;exitX=0.5;exitY=1;exitDx=0;exitDy=0;entryX=1;entryY=0;entryDx=0;entryDy=0;" edge="1" parent="1" source="CRBcAmu8d5yitR3T7LE3-62" target="CRBcAmu8d5yitR3T7LE3-50">
          <mxGeometry x="-0.1429" width="160" relative="1" as="geometry">
            <mxPoint x="-890" y="230" as="sourcePoint" />
            <mxPoint x="-890" y="339" as="targetPoint" />
            <mxPoint as="offset" />
          </mxGeometry>
        </mxCell>
        <mxCell id="CRBcAmu8d5yitR3T7LE3-67" value="Extends" style="endArrow=open;endSize=12;dashed=1;html=1;rounded=0;exitX=0.5;exitY=1;exitDx=0;exitDy=0;entryX=0.5;entryY=0;entryDx=0;entryDy=0;" edge="1" parent="1" source="CRBcAmu8d5yitR3T7LE3-60" target="CRBcAmu8d5yitR3T7LE3-52">
          <mxGeometry x="-0.1429" width="160" relative="1" as="geometry">
            <mxPoint x="-1050" y="240" as="sourcePoint" />
            <mxPoint x="-1049" y="301" as="targetPoint" />
            <mxPoint as="offset" />
          </mxGeometry>
        </mxCell>
        <mxCell id="CRBcAmu8d5yitR3T7LE3-68" value="Extends" style="endArrow=open;endSize=12;dashed=1;html=1;rounded=0;exitX=0.5;exitY=1;exitDx=0;exitDy=0;entryX=0.377;entryY=0.039;entryDx=0;entryDy=0;entryPerimeter=0;" edge="1" parent="1" source="CRBcAmu8d5yitR3T7LE3-59" target="CRBcAmu8d5yitR3T7LE3-52">
          <mxGeometry x="-0.6808" width="160" relative="1" as="geometry">
            <mxPoint x="-890" y="280" as="sourcePoint" />
            <mxPoint x="-889" y="341" as="targetPoint" />
            <mxPoint as="offset" />
          </mxGeometry>
        </mxCell>
        <mxCell id="CRBcAmu8d5yitR3T7LE3-70" value="Extends" style="endArrow=open;endSize=12;dashed=1;html=1;rounded=0;exitX=0.5;exitY=1;exitDx=0;exitDy=0;entryX=0;entryY=0;entryDx=0;entryDy=0;" edge="1" parent="1" source="CRBcAmu8d5yitR3T7LE3-58" target="CRBcAmu8d5yitR3T7LE3-52">
          <mxGeometry x="0.2052" y="1" width="160" relative="1" as="geometry">
            <mxPoint x="-1132" y="280" as="sourcePoint" />
            <mxPoint x="-1090" y="342" as="targetPoint" />
            <mxPoint as="offset" />
          </mxGeometry>
        </mxCell>
        <mxCell id="CRBcAmu8d5yitR3T7LE3-71" value="include" style="endArrow=open;endSize=12;dashed=1;html=1;rounded=0;exitX=1;exitY=1;exitDx=0;exitDy=0;entryX=0.5;entryY=0;entryDx=0;entryDy=0;" edge="1" parent="1" source="CRBcAmu8d5yitR3T7LE3-48" target="CRBcAmu8d5yitR3T7LE3-31">
          <mxGeometry x="-0.1429" width="160" relative="1" as="geometry">
            <mxPoint x="-690" y="420" as="sourcePoint" />
            <mxPoint x="-755" y="487" as="targetPoint" />
            <mxPoint as="offset" />
          </mxGeometry>
        </mxCell>
        <mxCell id="CRBcAmu8d5yitR3T7LE3-75" value="Use" style="endArrow=classicThin;endSize=12;html=1;rounded=0;endFill=1;" edge="1" parent="1" source="CRBcAmu8d5yitR3T7LE3-23" target="CRBcAmu8d5yitR3T7LE3-48">
          <mxGeometry x="-0.3985" y="4" width="160" relative="1" as="geometry">
            <mxPoint x="-1350" y="960" as="sourcePoint" />
            <mxPoint x="-1180" y="960" as="targetPoint" />
            <mxPoint as="offset" />
          </mxGeometry>
        </mxCell>
        <mxCell id="CRBcAmu8d5yitR3T7LE3-77" value="개인정보&lt;div&gt;&amp;nbsp;관리&lt;/div&gt;" style="ellipse;whiteSpace=wrap;html=1;" vertex="1" parent="1">
          <mxGeometry x="-1102.5" y="680" width="70" height="50" as="geometry" />
        </mxCell>
        <mxCell id="CRBcAmu8d5yitR3T7LE3-81" value="include" style="endArrow=open;endSize=12;dashed=1;html=1;rounded=0;exitX=1;exitY=0.5;exitDx=0;exitDy=0;entryX=0;entryY=0.5;entryDx=0;entryDy=0;" edge="1" parent="1" source="CRBcAmu8d5yitR3T7LE3-77" target="CRBcAmu8d5yitR3T7LE3-31">
          <mxGeometry x="-0.1429" width="160" relative="1" as="geometry">
            <mxPoint x="-1065" y="600" as="sourcePoint" />
            <mxPoint x="-940" y="763" as="targetPoint" />
            <mxPoint as="offset" />
          </mxGeometry>
        </mxCell>
        <mxCell id="CRBcAmu8d5yitR3T7LE3-82" value="Use" style="endArrow=classicThin;endSize=12;html=1;rounded=0;endFill=1;entryX=0;entryY=0.5;entryDx=0;entryDy=0;" edge="1" parent="1" source="CRBcAmu8d5yitR3T7LE3-24" target="CRBcAmu8d5yitR3T7LE3-77">
          <mxGeometry x="-0.1429" width="160" relative="1" as="geometry">
            <mxPoint x="-1350" y="941" as="sourcePoint" />
            <mxPoint x="-1016" y="522" as="targetPoint" />
            <mxPoint as="offset" />
          </mxGeometry>
        </mxCell>
        <mxCell id="CRBcAmu8d5yitR3T7LE3-83" value="프로필 서비스" style="ellipse;whiteSpace=wrap;html=1;" vertex="1" parent="1">
          <mxGeometry x="-760" y="531" width="100" height="75" as="geometry" />
        </mxCell>
        <mxCell id="CRBcAmu8d5yitR3T7LE3-97" style="edgeStyle=orthogonalEdgeStyle;rounded=0;orthogonalLoop=1;jettySize=auto;html=1;endArrow=block;endFill=0;" edge="1" parent="1" source="CRBcAmu8d5yitR3T7LE3-84" target="CRBcAmu8d5yitR3T7LE3-83">
          <mxGeometry relative="1" as="geometry">
            <Array as="points">
              <mxPoint x="-620" y="496" />
              <mxPoint x="-620" y="585" />
            </Array>
          </mxGeometry>
        </mxCell>
        <mxCell id="CRBcAmu8d5yitR3T7LE3-84" value="프로필 수정" style="ellipse;whiteSpace=wrap;html=1;" vertex="1" parent="1">
          <mxGeometry x="-588.5" y="471" width="50" height="50" as="geometry" />
        </mxCell>
        <mxCell id="CRBcAmu8d5yitR3T7LE3-94" style="edgeStyle=orthogonalEdgeStyle;rounded=0;orthogonalLoop=1;jettySize=auto;html=1;endArrow=block;endFill=0;" edge="1" parent="1" source="CRBcAmu8d5yitR3T7LE3-85" target="CRBcAmu8d5yitR3T7LE3-83">
          <mxGeometry relative="1" as="geometry">
            <Array as="points">
              <mxPoint x="-620" y="556" />
              <mxPoint x="-620" y="585" />
            </Array>
          </mxGeometry>
        </mxCell>
        <mxCell id="CRBcAmu8d5yitR3T7LE3-85" value="플레이&lt;div&gt;리스트&lt;/div&gt;" style="ellipse;whiteSpace=wrap;html=1;" vertex="1" parent="1">
          <mxGeometry x="-588.5" y="531" width="50" height="50" as="geometry" />
        </mxCell>
        <mxCell id="CRBcAmu8d5yitR3T7LE3-95" style="edgeStyle=orthogonalEdgeStyle;rounded=0;orthogonalLoop=1;jettySize=auto;html=1;endArrow=block;endFill=0;" edge="1" parent="1" source="CRBcAmu8d5yitR3T7LE3-86" target="CRBcAmu8d5yitR3T7LE3-83">
          <mxGeometry relative="1" as="geometry">
            <Array as="points">
              <mxPoint x="-620" y="614" />
              <mxPoint x="-620" y="585" />
            </Array>
          </mxGeometry>
        </mxCell>
        <mxCell id="CRBcAmu8d5yitR3T7LE3-86" value="업로드 조회" style="ellipse;whiteSpace=wrap;html=1;" vertex="1" parent="1">
          <mxGeometry x="-588.5" y="588.5" width="50" height="50" as="geometry" />
        </mxCell>
        <mxCell id="CRBcAmu8d5yitR3T7LE3-96" style="edgeStyle=orthogonalEdgeStyle;rounded=0;orthogonalLoop=1;jettySize=auto;html=1;endArrow=block;endFill=0;" edge="1" parent="1" source="CRBcAmu8d5yitR3T7LE3-87" target="CRBcAmu8d5yitR3T7LE3-83">
          <mxGeometry relative="1" as="geometry">
            <Array as="points">
              <mxPoint x="-620" y="674" />
              <mxPoint x="-620" y="585" />
            </Array>
          </mxGeometry>
        </mxCell>
        <mxCell id="CRBcAmu8d5yitR3T7LE3-87" value="최근 재생한 곡" style="ellipse;whiteSpace=wrap;html=1;" vertex="1" parent="1">
          <mxGeometry x="-600" y="648.5" width="73" height="50" as="geometry" />
        </mxCell>
        <mxCell id="CRBcAmu8d5yitR3T7LE3-88" value="음원&amp;nbsp;&lt;div&gt;업로드&lt;/div&gt;" style="ellipse;whiteSpace=wrap;html=1;" vertex="1" parent="1">
          <mxGeometry x="-1190" y="415" width="50" height="50" as="geometry" />
        </mxCell>
        <mxCell id="CRBcAmu8d5yitR3T7LE3-98" value="Use" style="endArrow=classicThin;endSize=12;html=1;rounded=0;endFill=1;entryX=0;entryY=0.5;entryDx=0;entryDy=0;" edge="1" parent="1" source="CRBcAmu8d5yitR3T7LE3-24" target="CRBcAmu8d5yitR3T7LE3-83">
          <mxGeometry x="-0.215" width="160" relative="1" as="geometry">
            <mxPoint x="-1350" y="514" as="sourcePoint" />
            <mxPoint x="-1093" y="715" as="targetPoint" />
            <mxPoint as="offset" />
          </mxGeometry>
        </mxCell>
        <mxCell id="CRBcAmu8d5yitR3T7LE3-99" value="include" style="endArrow=open;endSize=12;dashed=1;html=1;rounded=0;exitX=0.5;exitY=1;exitDx=0;exitDy=0;entryX=1;entryY=0;entryDx=0;entryDy=0;" edge="1" parent="1" source="CRBcAmu8d5yitR3T7LE3-83" target="CRBcAmu8d5yitR3T7LE3-31">
          <mxGeometry x="-0.1429" width="160" relative="1" as="geometry">
            <mxPoint x="-773.5" y="669" as="sourcePoint" />
            <mxPoint x="-648.5" y="820" as="targetPoint" />
            <mxPoint as="offset" />
          </mxGeometry>
        </mxCell>
        <mxCell id="CRBcAmu8d5yitR3T7LE3-101" style="edgeStyle=orthogonalEdgeStyle;rounded=0;orthogonalLoop=1;jettySize=auto;html=1;endArrow=block;endFill=0;" edge="1" parent="1" source="CRBcAmu8d5yitR3T7LE3-100" target="CRBcAmu8d5yitR3T7LE3-83">
          <mxGeometry relative="1" as="geometry">
            <Array as="points">
              <mxPoint x="-620" y="440" />
              <mxPoint x="-620" y="584" />
            </Array>
          </mxGeometry>
        </mxCell>
        <mxCell id="CRBcAmu8d5yitR3T7LE3-100" value="프로필 조회" style="ellipse;whiteSpace=wrap;html=1;" vertex="1" parent="1">
          <mxGeometry x="-588.5" y="415" width="50" height="50" as="geometry" />
        </mxCell>
        <mxCell id="CRBcAmu8d5yitR3T7LE3-103" value="Use" style="endArrow=classicThin;endSize=12;html=1;rounded=0;endFill=1;entryX=0;entryY=0.5;entryDx=0;entryDy=0;" edge="1" parent="1" source="CRBcAmu8d5yitR3T7LE3-24" target="CRBcAmu8d5yitR3T7LE3-88">
          <mxGeometry x="-0.1429" width="160" relative="1" as="geometry">
            <mxPoint x="-1350" y="503" as="sourcePoint" />
            <mxPoint x="-1040" y="503" as="targetPoint" />
            <mxPoint as="offset" />
          </mxGeometry>
        </mxCell>
        <mxCell id="CRBcAmu8d5yitR3T7LE3-104" value="음원&lt;div&gt;중지&lt;/div&gt;" style="ellipse;whiteSpace=wrap;html=1;" vertex="1" parent="1">
          <mxGeometry x="-1071.5" y="100" width="50" height="50" as="geometry" />
        </mxCell>
        <mxCell id="CRBcAmu8d5yitR3T7LE3-105" value="음원&lt;div&gt;다운로드&lt;/div&gt;" style="ellipse;whiteSpace=wrap;html=1;" vertex="1" parent="1">
          <mxGeometry x="-1121.5" y="100" width="50" height="50" as="geometry" />
        </mxCell>
        <mxCell id="CRBcAmu8d5yitR3T7LE3-106" value="음원&lt;div&gt;재생&lt;/div&gt;" style="ellipse;whiteSpace=wrap;html=1;" vertex="1" parent="1">
          <mxGeometry x="-1171.5" y="100" width="50" height="50" as="geometry" />
        </mxCell>
        <mxCell id="CRBcAmu8d5yitR3T7LE3-107" value="Extends" style="endArrow=open;endSize=12;dashed=1;html=1;rounded=0;entryX=0.5;entryY=0;entryDx=0;entryDy=0;exitX=0.5;exitY=1;exitDx=0;exitDy=0;" edge="1" parent="1" source="CRBcAmu8d5yitR3T7LE3-105" target="CRBcAmu8d5yitR3T7LE3-59">
          <mxGeometry x="-0.3333" width="160" relative="1" as="geometry">
            <mxPoint x="-1080" y="170" as="sourcePoint" />
            <mxPoint x="-1096.79" y="210" as="targetPoint" />
            <mxPoint as="offset" />
          </mxGeometry>
        </mxCell>
        <mxCell id="CRBcAmu8d5yitR3T7LE3-108" value="Extends" style="endArrow=open;endSize=12;dashed=1;html=1;rounded=0;entryX=1;entryY=0;entryDx=0;entryDy=0;exitX=0.5;exitY=1;exitDx=0;exitDy=0;" edge="1" parent="1" source="CRBcAmu8d5yitR3T7LE3-104" target="CRBcAmu8d5yitR3T7LE3-59">
          <mxGeometry x="-0.7586" y="4" width="160" relative="1" as="geometry">
            <mxPoint x="-1086" y="160" as="sourcePoint" />
            <mxPoint x="-1086" y="220" as="targetPoint" />
            <mxPoint as="offset" />
          </mxGeometry>
        </mxCell>
        <mxCell id="CRBcAmu8d5yitR3T7LE3-109" value="Extends" style="endArrow=open;endSize=12;dashed=1;html=1;rounded=0;exitX=0.5;exitY=1;exitDx=0;exitDy=0;entryX=0.239;entryY=0.06;entryDx=0;entryDy=0;entryPerimeter=0;" edge="1" parent="1" source="CRBcAmu8d5yitR3T7LE3-106" target="CRBcAmu8d5yitR3T7LE3-59">
          <mxGeometry x="0.312" y="3" width="160" relative="1" as="geometry">
            <mxPoint x="-1076" y="170" as="sourcePoint" />
            <mxPoint x="-1100" y="210" as="targetPoint" />
            <mxPoint as="offset" />
          </mxGeometry>
        </mxCell>
        <mxCell id="CRBcAmu8d5yitR3T7LE3-110" value="관리자 서비스" style="ellipse;whiteSpace=wrap;html=1;" vertex="1" parent="1">
          <mxGeometry x="-340" y="797.5" width="100" height="75" as="geometry" />
        </mxCell>
        <mxCell id="CRBcAmu8d5yitR3T7LE3-126" style="edgeStyle=orthogonalEdgeStyle;rounded=0;orthogonalLoop=1;jettySize=auto;html=1;endArrow=block;endFill=0;" edge="1" parent="1" source="CRBcAmu8d5yitR3T7LE3-111" target="CRBcAmu8d5yitR3T7LE3-110">
          <mxGeometry relative="1" as="geometry" />
        </mxCell>
        <mxCell id="CRBcAmu8d5yitR3T7LE3-111" value="회원&lt;div&gt;제재&lt;/div&gt;" style="ellipse;whiteSpace=wrap;html=1;" vertex="1" parent="1">
          <mxGeometry x="-370" y="920" width="50" height="50" as="geometry" />
        </mxCell>
        <mxCell id="CRBcAmu8d5yitR3T7LE3-124" style="edgeStyle=orthogonalEdgeStyle;rounded=0;orthogonalLoop=1;jettySize=auto;html=1;entryX=0.5;entryY=1;entryDx=0;entryDy=0;endArrow=block;endFill=0;" edge="1" parent="1" source="CRBcAmu8d5yitR3T7LE3-112" target="CRBcAmu8d5yitR3T7LE3-110">
          <mxGeometry relative="1" as="geometry" />
        </mxCell>
        <mxCell id="CRBcAmu8d5yitR3T7LE3-112" value="회원&lt;div&gt;&lt;span style=&quot;background-color: initial;&quot;&gt;목록&lt;/span&gt;&lt;div&gt;&lt;span style=&quot;background-color: initial;&quot;&gt;조회&lt;/span&gt;&lt;/div&gt;&lt;/div&gt;" style="ellipse;whiteSpace=wrap;html=1;" vertex="1" parent="1">
          <mxGeometry x="-315" y="920" width="50" height="50" as="geometry" />
        </mxCell>
        <mxCell id="CRBcAmu8d5yitR3T7LE3-125" style="edgeStyle=orthogonalEdgeStyle;rounded=0;orthogonalLoop=1;jettySize=auto;html=1;entryX=0.5;entryY=1;entryDx=0;entryDy=0;endArrow=block;endFill=0;" edge="1" parent="1" source="CRBcAmu8d5yitR3T7LE3-113" target="CRBcAmu8d5yitR3T7LE3-110">
          <mxGeometry relative="1" as="geometry" />
        </mxCell>
        <mxCell id="CRBcAmu8d5yitR3T7LE3-113" value="음원&amp;nbsp;&lt;div&gt;삭제&lt;/div&gt;" style="ellipse;whiteSpace=wrap;html=1;" vertex="1" parent="1">
          <mxGeometry x="-260" y="920" width="50" height="50" as="geometry" />
        </mxCell>
        <mxCell id="CRBcAmu8d5yitR3T7LE3-128" style="edgeStyle=orthogonalEdgeStyle;rounded=0;orthogonalLoop=1;jettySize=auto;html=1;endArrow=block;endFill=0;" edge="1" parent="1" source="CRBcAmu8d5yitR3T7LE3-115" target="CRBcAmu8d5yitR3T7LE3-123">
          <mxGeometry relative="1" as="geometry" />
        </mxCell>
        <mxCell id="CRBcAmu8d5yitR3T7LE3-115" value="자주&lt;div&gt;&lt;span style=&quot;background-color: initial;&quot;&gt;묻는&lt;/span&gt;&lt;div&gt;질문&lt;/div&gt;&lt;/div&gt;" style="ellipse;whiteSpace=wrap;html=1;" vertex="1" parent="1">
          <mxGeometry x="-595" y="920" width="50" height="50" as="geometry" />
        </mxCell>
        <mxCell id="CRBcAmu8d5yitR3T7LE3-127" style="edgeStyle=orthogonalEdgeStyle;rounded=0;orthogonalLoop=1;jettySize=auto;html=1;endArrow=block;endFill=0;" edge="1" parent="1" source="CRBcAmu8d5yitR3T7LE3-116" target="CRBcAmu8d5yitR3T7LE3-123">
          <mxGeometry relative="1" as="geometry" />
        </mxCell>
        <mxCell id="CRBcAmu8d5yitR3T7LE3-116" value="공지사항" style="ellipse;whiteSpace=wrap;html=1;" vertex="1" parent="1">
          <mxGeometry x="-530" y="920" width="50" height="50" as="geometry" />
        </mxCell>
        <mxCell id="CRBcAmu8d5yitR3T7LE3-129" style="edgeStyle=orthogonalEdgeStyle;rounded=0;orthogonalLoop=1;jettySize=auto;html=1;endArrow=block;endFill=0;" edge="1" parent="1" source="CRBcAmu8d5yitR3T7LE3-117" target="CRBcAmu8d5yitR3T7LE3-123">
          <mxGeometry relative="1" as="geometry" />
        </mxCell>
        <mxCell id="CRBcAmu8d5yitR3T7LE3-117" value="문의하기" style="ellipse;whiteSpace=wrap;html=1;" vertex="1" parent="1">
          <mxGeometry x="-660" y="920" width="50" height="50" as="geometry" />
        </mxCell>
        <mxCell id="CRBcAmu8d5yitR3T7LE3-123" value="게시판 서비스" style="ellipse;whiteSpace=wrap;html=1;" vertex="1" parent="1">
          <mxGeometry x="-620" y="797.5" width="100" height="75" as="geometry" />
        </mxCell>
        <mxCell id="CRBcAmu8d5yitR3T7LE3-130" value="Use" style="endArrow=classicThin;endSize=12;html=1;rounded=0;endFill=1;entryX=0.5;entryY=0;entryDx=0;entryDy=0;" edge="1" parent="1" source="CRBcAmu8d5yitR3T7LE3-20" target="CRBcAmu8d5yitR3T7LE3-110">
          <mxGeometry x="-0.215" width="160" relative="1" as="geometry">
            <mxPoint x="-500" y="830" as="sourcePoint" />
            <mxPoint x="112" y="920" as="targetPoint" />
            <mxPoint as="offset" />
          </mxGeometry>
        </mxCell>
        <mxCell id="CRBcAmu8d5yitR3T7LE3-131" value="Use" style="endArrow=classicThin;endSize=12;html=1;rounded=0;endFill=1;" edge="1" parent="1" source="CRBcAmu8d5yitR3T7LE3-20" target="CRBcAmu8d5yitR3T7LE3-123">
          <mxGeometry x="-0.215" width="160" relative="1" as="geometry">
            <mxPoint x="-410" y="581" as="sourcePoint" />
            <mxPoint x="-460" y="909" as="targetPoint" />
            <mxPoint as="offset" />
          </mxGeometry>
        </mxCell>
        <mxCell id="CRBcAmu8d5yitR3T7LE3-132" value="Use" style="endArrow=classicThin;endSize=12;html=1;rounded=0;endFill=1;" edge="1" parent="1" source="CRBcAmu8d5yitR3T7LE3-24" target="CRBcAmu8d5yitR3T7LE3-123">
          <mxGeometry x="-0.1429" width="160" relative="1" as="geometry">
            <mxPoint x="-933" y="810" as="sourcePoint" />
            <mxPoint x="-675" y="1011" as="targetPoint" />
            <mxPoint as="offset" />
          </mxGeometry>
        </mxCell>
        <mxCell id="CRBcAmu8d5yitR3T7LE3-133" value="Use" style="endArrow=classicThin;endSize=12;html=1;rounded=0;endFill=1;" edge="1" parent="1" source="CRBcAmu8d5yitR3T7LE3-23" target="CRBcAmu8d5yitR3T7LE3-123">
          <mxGeometry x="-0.1429" width="160" relative="1" as="geometry">
            <mxPoint x="-1177" y="1169" as="sourcePoint" />
            <mxPoint x="-790" y="960" as="targetPoint" />
            <mxPoint as="offset" />
          </mxGeometry>
        </mxCell>
        <mxCell id="CRBcAmu8d5yitR3T7LE3-134" value="include" style="endArrow=open;endSize=12;dashed=1;html=1;rounded=0;" edge="1" parent="1" source="CRBcAmu8d5yitR3T7LE3-110" target="CRBcAmu8d5yitR3T7LE3-31">
          <mxGeometry x="-0.1429" width="160" relative="1" as="geometry">
            <mxPoint x="-406.9764153579772" y="826.1220236361136" as="sourcePoint" />
            <mxPoint x="-750" y="700" as="targetPoint" />
            <mxPoint as="offset" />
          </mxGeometry>
        </mxCell>
        <mxCell id="CRBcAmu8d5yitR3T7LE3-135" value="결제&amp;nbsp;&lt;div&gt;서비스&lt;/div&gt;" style="ellipse;whiteSpace=wrap;html=1;" vertex="1" parent="1">
          <mxGeometry x="-1348.5" y="598.5" width="50" height="50" as="geometry" />
        </mxCell>
        <mxCell id="CRBcAmu8d5yitR3T7LE3-136" value="결제 대행 시스템" style="shape=umlActor;verticalLabelPosition=bottom;verticalAlign=top;html=1;" vertex="1" parent="1">
          <mxGeometry x="-1220" y="631" width="30" height="60" as="geometry" />
        </mxCell>
        <mxCell id="CRBcAmu8d5yitR3T7LE3-137" value="카드결제" style="ellipse;whiteSpace=wrap;html=1;" vertex="1" parent="1">
          <mxGeometry x="-1348.5" y="710" width="50" height="50" as="geometry" />
        </mxCell>
        <mxCell id="CRBcAmu8d5yitR3T7LE3-138" value="휴대폰&lt;div&gt;결제&lt;/div&gt;" style="ellipse;whiteSpace=wrap;html=1;" vertex="1" parent="1">
          <mxGeometry x="-1290" y="710" width="50" height="50" as="geometry" />
        </mxCell>
        <mxCell id="CRBcAmu8d5yitR3T7LE3-139" value="Extends" style="endArrow=open;endSize=12;dashed=1;html=1;rounded=0;entryX=0.5;entryY=1;entryDx=0;entryDy=0;exitX=0.5;exitY=0;exitDx=0;exitDy=0;" edge="1" parent="1" source="CRBcAmu8d5yitR3T7LE3-138" target="CRBcAmu8d5yitR3T7LE3-135">
          <mxGeometry x="-0.1349" y="-4" width="160" relative="1" as="geometry">
            <mxPoint x="-1115" y="708" as="sourcePoint" />
            <mxPoint x="-1148" y="775" as="targetPoint" />
            <mxPoint as="offset" />
          </mxGeometry>
        </mxCell>
        <mxCell id="CRBcAmu8d5yitR3T7LE3-140" value="Extends" style="endArrow=open;endSize=12;dashed=1;html=1;rounded=0;entryX=0.5;entryY=1;entryDx=0;entryDy=0;exitX=0.5;exitY=0;exitDx=0;exitDy=0;" edge="1" parent="1" source="CRBcAmu8d5yitR3T7LE3-137" target="CRBcAmu8d5yitR3T7LE3-135">
          <mxGeometry x="-0.7586" y="4" width="160" relative="1" as="geometry">
            <mxPoint x="-1206" y="875" as="sourcePoint" />
            <mxPoint x="-1239" y="942" as="targetPoint" />
            <mxPoint as="offset" />
          </mxGeometry>
        </mxCell>
        <mxCell id="CRBcAmu8d5yitR3T7LE3-141" value="Use" style="endArrow=classicThin;endSize=12;html=1;rounded=0;endFill=1;exitX=1;exitY=0.5;exitDx=0;exitDy=0;" edge="1" parent="1" source="CRBcAmu8d5yitR3T7LE3-135" target="CRBcAmu8d5yitR3T7LE3-136">
          <mxGeometry x="-0.1429" width="160" relative="1" as="geometry">
            <mxPoint x="-1380" y="748" as="sourcePoint" />
            <mxPoint x="-1210" y="700" as="targetPoint" />
            <mxPoint as="offset" />
          </mxGeometry>
        </mxCell>
        <mxCell id="CRBcAmu8d5yitR3T7LE3-142" value="Use" style="endArrow=classicThin;endSize=12;html=1;rounded=0;endFill=1;entryX=0.5;entryY=0;entryDx=0;entryDy=0;" edge="1" parent="1" source="CRBcAmu8d5yitR3T7LE3-24" target="CRBcAmu8d5yitR3T7LE3-135">
          <mxGeometry x="-0.1429" width="160" relative="1" as="geometry">
            <mxPoint x="-1350" y="498" as="sourcePoint" />
            <mxPoint x="-1180" y="450" as="targetPoint" />
            <mxPoint as="offset" />
          </mxGeometry>
        </mxCell>
        <mxCell id="CRBcAmu8d5yitR3T7LE3-146" value="include" style="endArrow=open;endSize=12;dashed=1;html=1;rounded=0;exitX=1;exitY=1;exitDx=0;exitDy=0;entryX=0;entryY=0;entryDx=0;entryDy=0;" edge="1" parent="1" source="CRBcAmu8d5yitR3T7LE3-88" target="CRBcAmu8d5yitR3T7LE3-31">
          <mxGeometry x="-0.7777" y="-3" width="160" relative="1" as="geometry">
            <mxPoint x="-940" y="797.5" as="sourcePoint" />
            <mxPoint x="-808" y="753.5" as="targetPoint" />
            <mxPoint as="offset" />
          </mxGeometry>
        </mxCell>
        <mxCell id="PrHG_esWyr_VDPOS-1Gl-1" value="업로드 취소(삭제)" style="ellipse;whiteSpace=wrap;html=1;" vertex="1" parent="1">
          <mxGeometry x="-470" y="588.5" width="70" height="50" as="geometry" />
        </mxCell>
        <mxCell id="PrHG_esWyr_VDPOS-1Gl-3" value="Extends" style="endArrow=open;endSize=12;dashed=1;html=1;rounded=0;exitX=0;exitY=0.5;exitDx=0;exitDy=0;entryX=1;entryY=0.5;entryDx=0;entryDy=0;" edge="1" parent="1" source="PrHG_esWyr_VDPOS-1Gl-1" target="CRBcAmu8d5yitR3T7LE3-86">
          <mxGeometry x="-0.1429" width="160" relative="1" as="geometry">
            <mxPoint x="-395" y="290" as="sourcePoint" />
            <mxPoint x="-460" y="357" as="targetPoint" />
            <mxPoint as="offset" />
          </mxGeometry>
        </mxCell>
        <mxCell id="Xk1omjmcZx-Ks3U8CFxi-1" value="플레이리스트&lt;div&gt;&lt;span style=&quot;background-color: initial;&quot;&gt;수정&lt;/span&gt;&lt;/div&gt;" style="ellipse;whiteSpace=wrap;html=1;" vertex="1" parent="1">
          <mxGeometry x="-475" y="530" width="80" height="50" as="geometry" />
        </mxCell>
        <mxCell id="Xk1omjmcZx-Ks3U8CFxi-2" value="Extends" style="endArrow=open;endSize=12;dashed=1;html=1;rounded=0;exitX=0;exitY=0.5;exitDx=0;exitDy=0;entryX=1;entryY=0.5;entryDx=0;entryDy=0;" edge="1" parent="1" source="Xk1omjmcZx-Ks3U8CFxi-1" target="CRBcAmu8d5yitR3T7LE3-85">
          <mxGeometry x="-0.1429" width="160" relative="1" as="geometry">
            <mxPoint x="-460" y="624" as="sourcePoint" />
            <mxPoint x="-528" y="624" as="targetPoint" />
            <mxPoint as="offset" />
          </mxGeometry>
        </mxCell>
      </root>
    </mxGraphModel>
  </diagram>
  <diagram id="HudZZAOZhy-Lfexi5aZm" name="유스케이스명세서">
    <mxGraphModel dx="1509" dy="1990" grid="1" gridSize="10" guides="1" tooltips="1" connect="1" arrows="1" fold="1" page="1" pageScale="1" pageWidth="827" pageHeight="1169" math="0" shadow="0">
      <root>
        <mxCell id="0" />
        <mxCell id="1" parent="0" />
        <mxCell id="YTkO29Dv_eOW2ismKvbz-23" value="유스케이스명 : 플레이리스트" style="shape=table;startSize=30;container=1;collapsible=1;childLayout=tableLayout;fixedRows=1;rowLines=0;fontStyle=1;align=center;resizeLast=1;html=1;" parent="1" vertex="1">
          <mxGeometry x="986" y="-1120" width="510" height="710" as="geometry" />
        </mxCell>
        <mxCell id="YTkO29Dv_eOW2ismKvbz-24" value="" style="shape=tableRow;horizontal=0;startSize=0;swimlaneHead=0;swimlaneBody=0;fillColor=none;collapsible=0;dropTarget=0;points=[[0,0.5],[1,0.5]];portConstraint=eastwest;top=0;left=0;right=0;bottom=1;strokeColor=default;verticalAlign=middle;fontStyle=0" parent="YTkO29Dv_eOW2ismKvbz-23" vertex="1">
          <mxGeometry y="30" width="510" height="30" as="geometry" />
        </mxCell>
        <mxCell id="YTkO29Dv_eOW2ismKvbz-25" value="목표" style="shape=partialRectangle;connectable=0;fillColor=none;top=0;left=0;bottom=0;right=0;fontStyle=1;overflow=hidden;whiteSpace=wrap;html=1;" parent="YTkO29Dv_eOW2ismKvbz-24" vertex="1">
          <mxGeometry width="60" height="30" as="geometry">
            <mxRectangle width="60" height="30" as="alternateBounds" />
          </mxGeometry>
        </mxCell>
        <mxCell id="YTkO29Dv_eOW2ismKvbz-26" value="&lt;span style=&quot;font-weight: 400; text-wrap: nowrap;&quot;&gt;회원은 플레이리스트에 저장된 음원을 조회 할 수 있다.&lt;/span&gt;" style="shape=partialRectangle;connectable=0;fillColor=none;top=0;left=0;bottom=0;right=0;align=left;spacingLeft=6;fontStyle=1;overflow=hidden;whiteSpace=wrap;html=1;" parent="YTkO29Dv_eOW2ismKvbz-24" vertex="1">
          <mxGeometry x="60" width="450" height="30" as="geometry">
            <mxRectangle width="450" height="30" as="alternateBounds" />
          </mxGeometry>
        </mxCell>
        <mxCell id="YTkO29Dv_eOW2ismKvbz-27" value="" style="shape=tableRow;horizontal=0;startSize=0;swimlaneHead=0;swimlaneBody=0;fillColor=none;collapsible=0;dropTarget=0;points=[[0,0.5],[1,0.5]];portConstraint=eastwest;top=0;left=0;right=0;bottom=1;" parent="YTkO29Dv_eOW2ismKvbz-23" vertex="1">
          <mxGeometry y="60" width="510" height="30" as="geometry" />
        </mxCell>
        <mxCell id="YTkO29Dv_eOW2ismKvbz-28" value="엑터" style="shape=partialRectangle;connectable=0;fillColor=none;top=0;left=0;bottom=0;right=0;fontStyle=1;overflow=hidden;whiteSpace=wrap;html=1;" parent="YTkO29Dv_eOW2ismKvbz-27" vertex="1">
          <mxGeometry width="60" height="30" as="geometry">
            <mxRectangle width="60" height="30" as="alternateBounds" />
          </mxGeometry>
        </mxCell>
        <mxCell id="YTkO29Dv_eOW2ismKvbz-29" value="회원" style="shape=partialRectangle;connectable=0;fillColor=none;top=0;left=0;bottom=0;right=0;align=left;spacingLeft=6;fontStyle=0;overflow=hidden;whiteSpace=wrap;html=1;" parent="YTkO29Dv_eOW2ismKvbz-27" vertex="1">
          <mxGeometry x="60" width="450" height="30" as="geometry">
            <mxRectangle width="450" height="30" as="alternateBounds" />
          </mxGeometry>
        </mxCell>
        <mxCell id="YTkO29Dv_eOW2ismKvbz-30" value="" style="shape=tableRow;horizontal=0;startSize=0;swimlaneHead=0;swimlaneBody=0;fillColor=none;collapsible=0;dropTarget=0;points=[[0,0.5],[1,0.5]];portConstraint=eastwest;top=0;left=0;right=0;bottom=1;" parent="YTkO29Dv_eOW2ismKvbz-23" vertex="1">
          <mxGeometry y="90" width="510" height="30" as="geometry" />
        </mxCell>
        <mxCell id="YTkO29Dv_eOW2ismKvbz-31" value="사전 조건" style="shape=partialRectangle;connectable=0;fillColor=none;top=0;left=0;bottom=0;right=0;fontStyle=1;overflow=hidden;whiteSpace=wrap;html=1;" parent="YTkO29Dv_eOW2ismKvbz-30" vertex="1">
          <mxGeometry width="60" height="30" as="geometry">
            <mxRectangle width="60" height="30" as="alternateBounds" />
          </mxGeometry>
        </mxCell>
        <mxCell id="YTkO29Dv_eOW2ismKvbz-32" value="회원의 플레이리스트에&amp;nbsp; 음원이 저장되어 있다." style="shape=partialRectangle;connectable=0;fillColor=none;top=0;left=0;bottom=0;right=0;align=left;spacingLeft=6;fontStyle=0;overflow=hidden;whiteSpace=wrap;html=1;" parent="YTkO29Dv_eOW2ismKvbz-30" vertex="1">
          <mxGeometry x="60" width="450" height="30" as="geometry">
            <mxRectangle width="450" height="30" as="alternateBounds" />
          </mxGeometry>
        </mxCell>
        <mxCell id="YTkO29Dv_eOW2ismKvbz-33" value="" style="shape=tableRow;horizontal=0;startSize=0;swimlaneHead=0;swimlaneBody=0;fillColor=none;collapsible=0;dropTarget=0;points=[[0,0.5],[1,0.5]];portConstraint=eastwest;top=0;left=0;right=0;bottom=1;" parent="YTkO29Dv_eOW2ismKvbz-23" vertex="1">
          <mxGeometry y="120" width="510" height="30" as="geometry" />
        </mxCell>
        <mxCell id="YTkO29Dv_eOW2ismKvbz-34" value="사후 처리" style="shape=partialRectangle;connectable=0;fillColor=none;top=0;left=0;bottom=0;right=0;fontStyle=1;overflow=hidden;whiteSpace=wrap;html=1;" parent="YTkO29Dv_eOW2ismKvbz-33" vertex="1">
          <mxGeometry width="60" height="30" as="geometry">
            <mxRectangle width="60" height="30" as="alternateBounds" />
          </mxGeometry>
        </mxCell>
        <mxCell id="YTkO29Dv_eOW2ismKvbz-35" value="회원은 플레이리스트를 조회한다." style="shape=partialRectangle;connectable=0;fillColor=none;top=0;left=0;bottom=0;right=0;align=left;spacingLeft=6;fontStyle=0;overflow=hidden;whiteSpace=wrap;html=1;" parent="YTkO29Dv_eOW2ismKvbz-33" vertex="1">
          <mxGeometry x="60" width="450" height="30" as="geometry">
            <mxRectangle width="450" height="30" as="alternateBounds" />
          </mxGeometry>
        </mxCell>
        <mxCell id="YTkO29Dv_eOW2ismKvbz-36" value="" style="shape=tableRow;horizontal=0;startSize=0;swimlaneHead=0;swimlaneBody=0;fillColor=none;collapsible=0;dropTarget=0;points=[[0,0.5],[1,0.5]];portConstraint=eastwest;top=0;left=0;right=0;bottom=1;" parent="YTkO29Dv_eOW2ismKvbz-23" vertex="1">
          <mxGeometry y="150" width="510" height="70" as="geometry" />
        </mxCell>
        <mxCell id="YTkO29Dv_eOW2ismKvbz-37" value="기본흐름" style="shape=partialRectangle;connectable=0;fillColor=none;top=0;left=0;bottom=0;right=0;fontStyle=1;overflow=hidden;whiteSpace=wrap;html=1;" parent="YTkO29Dv_eOW2ismKvbz-36" vertex="1">
          <mxGeometry width="60" height="70" as="geometry">
            <mxRectangle width="60" height="70" as="alternateBounds" />
          </mxGeometry>
        </mxCell>
        <mxCell id="YTkO29Dv_eOW2ismKvbz-38" value="&lt;div style=&quot;text-wrap: nowrap;&quot;&gt;1. 회원은 플레이리스트 페이지에서 저장된 음원을 조회한다.&lt;/div&gt;" style="shape=partialRectangle;connectable=0;fillColor=none;top=0;left=0;bottom=0;right=0;align=left;spacingLeft=6;fontStyle=0;overflow=hidden;whiteSpace=wrap;html=1;" parent="YTkO29Dv_eOW2ismKvbz-36" vertex="1">
          <mxGeometry x="60" width="450" height="70" as="geometry">
            <mxRectangle width="450" height="70" as="alternateBounds" />
          </mxGeometry>
        </mxCell>
        <mxCell id="YTkO29Dv_eOW2ismKvbz-39" value="" style="shape=tableRow;horizontal=0;startSize=0;swimlaneHead=0;swimlaneBody=0;fillColor=none;collapsible=0;dropTarget=0;points=[[0,0.5],[1,0.5]];portConstraint=eastwest;top=0;left=0;right=0;bottom=1;" parent="YTkO29Dv_eOW2ismKvbz-23" vertex="1">
          <mxGeometry y="220" width="510" height="260" as="geometry" />
        </mxCell>
        <mxCell id="YTkO29Dv_eOW2ismKvbz-40" value="대안흐름" style="shape=partialRectangle;connectable=0;fillColor=none;top=0;left=0;bottom=0;right=0;fontStyle=1;overflow=hidden;whiteSpace=wrap;html=1;" parent="YTkO29Dv_eOW2ismKvbz-39" vertex="1">
          <mxGeometry width="60" height="260" as="geometry">
            <mxRectangle width="60" height="260" as="alternateBounds" />
          </mxGeometry>
        </mxCell>
        <mxCell id="YTkO29Dv_eOW2ismKvbz-41" value="&lt;div&gt;&lt;br&gt;&lt;/div&gt;&lt;div&gt;1-1.회원은 음원 재생 버튼을 입력한다&lt;/div&gt;&lt;span style=&quot;background-color: initial;&quot;&gt;1-2.시스템은 음원을 출력한다.&lt;/span&gt;&lt;div&gt;&lt;br&gt;&lt;/div&gt;&lt;div&gt;2-1.회원은 음원 정지 버튼을 입력한다&lt;/div&gt;&lt;div&gt;2-2.시스템은 음원의 출력을 중단한다.&lt;br&gt;&lt;div&gt;&lt;br&gt;&lt;/div&gt;&lt;div&gt;3-1.회원은 음원 삭제 버튼을 입력한다.&lt;/div&gt;&lt;div&gt;3-2.시스템은 음원을 삭제한다.&lt;br&gt;&lt;div&gt;&lt;br&gt;&lt;div&gt;4-1.회원은 폴더 만들기 버튼을 입력한다&lt;div&gt;4-2.회원은 폴더의 이름을 입력한다.&lt;/div&gt;&lt;div&gt;4-3.시스템은 플레이리스트에 폴더를 생성한다.&lt;br&gt;&lt;/div&gt;&lt;div&gt;&lt;br&gt;&lt;/div&gt;&lt;div&gt;5-1.회원은 음원 이동 버튼을 입력한다.&lt;/div&gt;&lt;div&gt;5-2.시스템은 음원을 다른 폴더로 이동한다.&lt;/div&gt;&lt;div&gt;&lt;br&gt;&lt;/div&gt;&lt;/div&gt;&lt;/div&gt;&lt;/div&gt;&lt;/div&gt;" style="shape=partialRectangle;connectable=0;fillColor=none;top=0;left=0;bottom=0;right=0;align=left;spacingLeft=6;fontStyle=0;overflow=hidden;whiteSpace=wrap;html=1;" parent="YTkO29Dv_eOW2ismKvbz-39" vertex="1">
          <mxGeometry x="60" width="450" height="260" as="geometry">
            <mxRectangle width="450" height="260" as="alternateBounds" />
          </mxGeometry>
        </mxCell>
        <mxCell id="YTkO29Dv_eOW2ismKvbz-42" value="" style="shape=tableRow;horizontal=0;startSize=0;swimlaneHead=0;swimlaneBody=0;fillColor=none;collapsible=0;dropTarget=0;points=[[0,0.5],[1,0.5]];portConstraint=eastwest;top=0;left=0;right=0;bottom=1;" parent="YTkO29Dv_eOW2ismKvbz-23" vertex="1">
          <mxGeometry y="480" width="510" height="230" as="geometry" />
        </mxCell>
        <mxCell id="YTkO29Dv_eOW2ismKvbz-43" value="예외흐름" style="shape=partialRectangle;connectable=0;fillColor=none;top=0;left=0;bottom=0;right=0;fontStyle=1;overflow=hidden;whiteSpace=wrap;html=1;" parent="YTkO29Dv_eOW2ismKvbz-42" vertex="1">
          <mxGeometry width="60" height="230" as="geometry">
            <mxRectangle width="60" height="230" as="alternateBounds" />
          </mxGeometry>
        </mxCell>
        <mxCell id="YTkO29Dv_eOW2ismKvbz-44" value="&lt;div style=&quot;text-wrap: nowrap;&quot;&gt;1a. 회원이 플레이리스트에 저장한 음원이 음원데이터베이스에서 삭제된 경우&lt;/div&gt;&lt;div style=&quot;text-wrap: nowrap;&quot;&gt;시스템은 &#39; &quot;업로드중지 사유&quot; 로 인하여 더 이상 해당 음원을 재생 할 수 없습니다. &#39;&amp;nbsp;&lt;/div&gt;&lt;div style=&quot;text-wrap: nowrap;&quot;&gt;메세지를 회원에게 출력&lt;/div&gt;&lt;div style=&quot;text-wrap: nowrap;&quot;&gt;&lt;br&gt;&lt;/div&gt;&lt;div style=&quot;text-wrap: nowrap;&quot;&gt;2a. 음원이 재생중이지 않은 상태에서 음원 정지버튼 입력시&lt;/div&gt;&lt;div style=&quot;text-wrap: nowrap;&quot;&gt;시스템은 &#39;현재 재생중인 음원이 없습니다&#39; 메세지를 회원에게 출력&lt;/div&gt;&lt;div style=&quot;text-wrap: nowrap;&quot;&gt;&lt;br&gt;&lt;/div&gt;&lt;div style=&quot;text-wrap: nowrap;&quot;&gt;4a. 동일한 이름의 폴더가 존재하는 경우&lt;/div&gt;&lt;div style=&quot;text-wrap: nowrap;&quot;&gt;시스템은 &#39;동일한 폴더가 있습니다&#39; 라는 메세지를 회원에게 출력&lt;/div&gt;&lt;div style=&quot;text-wrap: nowrap;&quot;&gt;&lt;br&gt;&lt;/div&gt;&lt;div style=&quot;text-wrap: nowrap;&quot;&gt;5a. 이동하려는 폴더 내에 동일한 파일이 있을경우&amp;nbsp;&lt;/div&gt;&lt;div style=&quot;text-wrap: nowrap;&quot;&gt;시스템은 &#39;동일한 음원이 존재합니다&#39; 라는 메세지를 회원에게 출력&lt;/div&gt;" style="shape=partialRectangle;connectable=0;fillColor=none;top=0;left=0;bottom=0;right=0;align=left;spacingLeft=6;fontStyle=0;overflow=hidden;whiteSpace=wrap;html=1;" parent="YTkO29Dv_eOW2ismKvbz-42" vertex="1">
          <mxGeometry x="60" width="450" height="230" as="geometry">
            <mxRectangle width="450" height="230" as="alternateBounds" />
          </mxGeometry>
        </mxCell>
        <mxCell id="vEH5Koc1mDdOswjX0Woc-1" value="유스케이스명 : 음원 조회" style="shape=table;startSize=30;container=1;collapsible=1;childLayout=tableLayout;fixedRows=1;rowLines=0;fontStyle=1;align=center;resizeLast=1;html=1;" vertex="1" parent="1">
          <mxGeometry x="450" y="-1120" width="510" height="710" as="geometry" />
        </mxCell>
        <mxCell id="vEH5Koc1mDdOswjX0Woc-2" value="" style="shape=tableRow;horizontal=0;startSize=0;swimlaneHead=0;swimlaneBody=0;fillColor=none;collapsible=0;dropTarget=0;points=[[0,0.5],[1,0.5]];portConstraint=eastwest;top=0;left=0;right=0;bottom=1;strokeColor=default;verticalAlign=middle;fontStyle=0" vertex="1" parent="vEH5Koc1mDdOswjX0Woc-1">
          <mxGeometry y="30" width="510" height="30" as="geometry" />
        </mxCell>
        <mxCell id="vEH5Koc1mDdOswjX0Woc-3" value="목표" style="shape=partialRectangle;connectable=0;fillColor=none;top=0;left=0;bottom=0;right=0;fontStyle=1;overflow=hidden;whiteSpace=wrap;html=1;" vertex="1" parent="vEH5Koc1mDdOswjX0Woc-2">
          <mxGeometry width="60" height="30" as="geometry">
            <mxRectangle width="60" height="30" as="alternateBounds" />
          </mxGeometry>
        </mxCell>
        <mxCell id="vEH5Koc1mDdOswjX0Woc-4" value="&lt;span style=&quot;font-weight: 400; text-wrap: nowrap;&quot;&gt;회원, 비회원이 음원 목록을 조회할 수 있도록 음원 검색 절차를 완료한다&lt;/span&gt;" style="shape=partialRectangle;connectable=0;fillColor=none;top=0;left=0;bottom=0;right=0;align=left;spacingLeft=6;fontStyle=1;overflow=hidden;whiteSpace=wrap;html=1;" vertex="1" parent="vEH5Koc1mDdOswjX0Woc-2">
          <mxGeometry x="60" width="450" height="30" as="geometry">
            <mxRectangle width="450" height="30" as="alternateBounds" />
          </mxGeometry>
        </mxCell>
        <mxCell id="vEH5Koc1mDdOswjX0Woc-5" value="" style="shape=tableRow;horizontal=0;startSize=0;swimlaneHead=0;swimlaneBody=0;fillColor=none;collapsible=0;dropTarget=0;points=[[0,0.5],[1,0.5]];portConstraint=eastwest;top=0;left=0;right=0;bottom=1;" vertex="1" parent="vEH5Koc1mDdOswjX0Woc-1">
          <mxGeometry y="60" width="510" height="30" as="geometry" />
        </mxCell>
        <mxCell id="vEH5Koc1mDdOswjX0Woc-6" value="엑터" style="shape=partialRectangle;connectable=0;fillColor=none;top=0;left=0;bottom=0;right=0;fontStyle=1;overflow=hidden;whiteSpace=wrap;html=1;" vertex="1" parent="vEH5Koc1mDdOswjX0Woc-5">
          <mxGeometry width="60" height="30" as="geometry">
            <mxRectangle width="60" height="30" as="alternateBounds" />
          </mxGeometry>
        </mxCell>
        <mxCell id="vEH5Koc1mDdOswjX0Woc-7" value="회원 / 비회원" style="shape=partialRectangle;connectable=0;fillColor=none;top=0;left=0;bottom=0;right=0;align=left;spacingLeft=6;fontStyle=0;overflow=hidden;whiteSpace=wrap;html=1;" vertex="1" parent="vEH5Koc1mDdOswjX0Woc-5">
          <mxGeometry x="60" width="450" height="30" as="geometry">
            <mxRectangle width="450" height="30" as="alternateBounds" />
          </mxGeometry>
        </mxCell>
        <mxCell id="vEH5Koc1mDdOswjX0Woc-8" value="" style="shape=tableRow;horizontal=0;startSize=0;swimlaneHead=0;swimlaneBody=0;fillColor=none;collapsible=0;dropTarget=0;points=[[0,0.5],[1,0.5]];portConstraint=eastwest;top=0;left=0;right=0;bottom=1;" vertex="1" parent="vEH5Koc1mDdOswjX0Woc-1">
          <mxGeometry y="90" width="510" height="30" as="geometry" />
        </mxCell>
        <mxCell id="vEH5Koc1mDdOswjX0Woc-9" value="사전 조건" style="shape=partialRectangle;connectable=0;fillColor=none;top=0;left=0;bottom=0;right=0;fontStyle=1;overflow=hidden;whiteSpace=wrap;html=1;" vertex="1" parent="vEH5Koc1mDdOswjX0Woc-8">
          <mxGeometry width="60" height="30" as="geometry">
            <mxRectangle width="60" height="30" as="alternateBounds" />
          </mxGeometry>
        </mxCell>
        <mxCell id="vEH5Koc1mDdOswjX0Woc-10" value="메인페이지에서 음원 검색을 클릭하여 음원 검색을 활성화 시킨다" style="shape=partialRectangle;connectable=0;fillColor=none;top=0;left=0;bottom=0;right=0;align=left;spacingLeft=6;fontStyle=0;overflow=hidden;whiteSpace=wrap;html=1;" vertex="1" parent="vEH5Koc1mDdOswjX0Woc-8">
          <mxGeometry x="60" width="450" height="30" as="geometry">
            <mxRectangle width="450" height="30" as="alternateBounds" />
          </mxGeometry>
        </mxCell>
        <mxCell id="vEH5Koc1mDdOswjX0Woc-11" value="" style="shape=tableRow;horizontal=0;startSize=0;swimlaneHead=0;swimlaneBody=0;fillColor=none;collapsible=0;dropTarget=0;points=[[0,0.5],[1,0.5]];portConstraint=eastwest;top=0;left=0;right=0;bottom=1;" vertex="1" parent="vEH5Koc1mDdOswjX0Woc-1">
          <mxGeometry y="120" width="510" height="30" as="geometry" />
        </mxCell>
        <mxCell id="vEH5Koc1mDdOswjX0Woc-12" value="사후 처리" style="shape=partialRectangle;connectable=0;fillColor=none;top=0;left=0;bottom=0;right=0;fontStyle=1;overflow=hidden;whiteSpace=wrap;html=1;" vertex="1" parent="vEH5Koc1mDdOswjX0Woc-11">
          <mxGeometry width="60" height="30" as="geometry">
            <mxRectangle width="60" height="30" as="alternateBounds" />
          </mxGeometry>
        </mxCell>
        <mxCell id="vEH5Koc1mDdOswjX0Woc-13" value="원하는 음원 검색 이후 음원 목록 페이지로 이동" style="shape=partialRectangle;connectable=0;fillColor=none;top=0;left=0;bottom=0;right=0;align=left;spacingLeft=6;fontStyle=0;overflow=hidden;whiteSpace=wrap;html=1;" vertex="1" parent="vEH5Koc1mDdOswjX0Woc-11">
          <mxGeometry x="60" width="450" height="30" as="geometry">
            <mxRectangle width="450" height="30" as="alternateBounds" />
          </mxGeometry>
        </mxCell>
        <mxCell id="vEH5Koc1mDdOswjX0Woc-14" value="" style="shape=tableRow;horizontal=0;startSize=0;swimlaneHead=0;swimlaneBody=0;fillColor=none;collapsible=0;dropTarget=0;points=[[0,0.5],[1,0.5]];portConstraint=eastwest;top=0;left=0;right=0;bottom=1;" vertex="1" parent="vEH5Koc1mDdOswjX0Woc-1">
          <mxGeometry y="150" width="510" height="170" as="geometry" />
        </mxCell>
        <mxCell id="vEH5Koc1mDdOswjX0Woc-15" value="기본흐름" style="shape=partialRectangle;connectable=0;fillColor=none;top=0;left=0;bottom=0;right=0;fontStyle=1;overflow=hidden;whiteSpace=wrap;html=1;" vertex="1" parent="vEH5Koc1mDdOswjX0Woc-14">
          <mxGeometry width="60" height="170" as="geometry">
            <mxRectangle width="60" height="170" as="alternateBounds" />
          </mxGeometry>
        </mxCell>
        <mxCell id="vEH5Koc1mDdOswjX0Woc-16" value="&lt;div style=&quot;text-wrap: nowrap;&quot;&gt;1. 회원은 메인 페이지에서 음원 검색 버튼을 클릭한다&lt;/div&gt;&lt;div style=&quot;text-wrap: nowrap;&quot;&gt;2. 회원은 찾고 싶은 키워드를 입력 하고 찾기를 클릭한다&lt;/div&gt;&lt;div style=&quot;text-wrap: nowrap;&quot;&gt;3. 시스템은 키워드를 포함한 음원 목록을 보여주는 페이지로 이동한다&lt;/div&gt;" style="shape=partialRectangle;connectable=0;fillColor=none;top=0;left=0;bottom=0;right=0;align=left;spacingLeft=6;fontStyle=0;overflow=hidden;whiteSpace=wrap;html=1;" vertex="1" parent="vEH5Koc1mDdOswjX0Woc-14">
          <mxGeometry x="60" width="450" height="170" as="geometry">
            <mxRectangle width="450" height="170" as="alternateBounds" />
          </mxGeometry>
        </mxCell>
        <mxCell id="vEH5Koc1mDdOswjX0Woc-17" value="" style="shape=tableRow;horizontal=0;startSize=0;swimlaneHead=0;swimlaneBody=0;fillColor=none;collapsible=0;dropTarget=0;points=[[0,0.5],[1,0.5]];portConstraint=eastwest;top=0;left=0;right=0;bottom=1;" vertex="1" parent="vEH5Koc1mDdOswjX0Woc-1">
          <mxGeometry y="320" width="510" height="130" as="geometry" />
        </mxCell>
        <mxCell id="vEH5Koc1mDdOswjX0Woc-18" value="대안흐름" style="shape=partialRectangle;connectable=0;fillColor=none;top=0;left=0;bottom=0;right=0;fontStyle=1;overflow=hidden;whiteSpace=wrap;html=1;" vertex="1" parent="vEH5Koc1mDdOswjX0Woc-17">
          <mxGeometry width="60" height="130" as="geometry">
            <mxRectangle width="60" height="130" as="alternateBounds" />
          </mxGeometry>
        </mxCell>
        <mxCell id="vEH5Koc1mDdOswjX0Woc-19" value="검색창 외 마우스로 클릭 시에 검색창 선택 비활성화" style="shape=partialRectangle;connectable=0;fillColor=none;top=0;left=0;bottom=0;right=0;align=left;spacingLeft=6;fontStyle=0;overflow=hidden;whiteSpace=wrap;html=1;" vertex="1" parent="vEH5Koc1mDdOswjX0Woc-17">
          <mxGeometry x="60" width="450" height="130" as="geometry">
            <mxRectangle width="450" height="130" as="alternateBounds" />
          </mxGeometry>
        </mxCell>
        <mxCell id="vEH5Koc1mDdOswjX0Woc-20" value="" style="shape=tableRow;horizontal=0;startSize=0;swimlaneHead=0;swimlaneBody=0;fillColor=none;collapsible=0;dropTarget=0;points=[[0,0.5],[1,0.5]];portConstraint=eastwest;top=0;left=0;right=0;bottom=1;" vertex="1" parent="vEH5Koc1mDdOswjX0Woc-1">
          <mxGeometry y="450" width="510" height="260" as="geometry" />
        </mxCell>
        <mxCell id="vEH5Koc1mDdOswjX0Woc-21" value="예외흐름" style="shape=partialRectangle;connectable=0;fillColor=none;top=0;left=0;bottom=0;right=0;fontStyle=1;overflow=hidden;whiteSpace=wrap;html=1;" vertex="1" parent="vEH5Koc1mDdOswjX0Woc-20">
          <mxGeometry width="60" height="260" as="geometry">
            <mxRectangle width="60" height="260" as="alternateBounds" />
          </mxGeometry>
        </mxCell>
        <mxCell id="vEH5Koc1mDdOswjX0Woc-22" value="&lt;div style=&quot;text-wrap: nowrap;&quot;&gt;1a 검색 키워드가 없는 경우&lt;/div&gt;&lt;div style=&quot;text-wrap: nowrap;&quot;&gt;&lt;span style=&quot;white-space: pre;&quot;&gt;&#x9;&lt;/span&gt;음원 목록 페이지(메인페이지)로 이동 후에&lt;/div&gt;&lt;div style=&quot;text-wrap: nowrap;&quot;&gt;&lt;span style=&quot;white-space: pre;&quot;&gt;&#x9;&lt;/span&gt;&amp;nbsp;&#39;검색 키워드가 없습니다&#39;라는 메시지 전달&lt;br&gt;&lt;/div&gt;&lt;div style=&quot;text-wrap: nowrap;&quot;&gt;&lt;br&gt;&lt;/div&gt;&lt;div style=&quot;text-wrap: nowrap;&quot;&gt;1b 검색 키워드를 포함한 음원이 없는 경우&lt;/div&gt;&lt;div style=&quot;text-wrap: nowrap;&quot;&gt;&lt;span style=&quot;white-space: pre;&quot;&gt;&#x9;&lt;/span&gt;음원 목록 페이지(메인페이지)로 이동 후에&lt;/div&gt;&lt;div style=&quot;text-wrap: nowrap;&quot;&gt;&lt;span style=&quot;white-space: pre;&quot;&gt;&#x9;&lt;/span&gt;&amp;nbsp;&#39;ㄱㄴㄷㄹ 를 포함하는 음원이 없습니다&#39;라는&amp;nbsp;&lt;span style=&quot;background-color: initial;&quot;&gt;메시지 전달&lt;/span&gt;&lt;/div&gt;" style="shape=partialRectangle;connectable=0;fillColor=none;top=0;left=0;bottom=0;right=0;align=left;spacingLeft=6;fontStyle=0;overflow=hidden;whiteSpace=wrap;html=1;" vertex="1" parent="vEH5Koc1mDdOswjX0Woc-20">
          <mxGeometry x="60" width="450" height="260" as="geometry">
            <mxRectangle width="450" height="260" as="alternateBounds" />
          </mxGeometry>
        </mxCell>
      </root>
    </mxGraphModel>
  </diagram>
</mxfile>
